<svg xmlns="http://www.w3.org/2000/svg" xmlns:xlink="http://www.w3.org/1999/xlink" viewBox="0 0 1080 1080"><defs><style>.cls-1{fill:none;}.cls-2{fill:#fbaf17;}.cls-3{fill:#ffda47;}.cls-4{clip-path:url(#clip-path);}.cls-5{fill:#f68851;}.cls-6{fill:#e96329;}.cls-7{fill:#c49a6c;}.cls-8{fill:#754c29;}.cls-9{fill:#e8a429;}.cls-10{fill:#ffca60;}</style><clipPath id="clip-path"><rect class="cls-1" x="427.4" y="457.54" width="225.2" height="299.88"/></clipPath></defs><title>Almond </title><g id="Layer_2" data-name="Layer 2"><circle class="cls-2" cx="540" cy="531.06" r="207.03"/></g><g id="Layer_4" data-name="Layer 4"><path class="cls-3" d="M603.92,385.53l.09-6.29a18.39,18.39,0,0,0-18.67-18.68l-6.29.08a25.76,25.76,0,0,0-17.89,7.56l-10.57,10.55A24.9,24.9,0,1,0,585.8,414l10.54-10.55a25.74,25.74,0,0,0,7.58-17.88Zm0,0"/><path class="cls-3" d="M443.37,449l.07-6.31A18.39,18.39,0,0,0,424.77,424l-6.3.07a25.8,25.8,0,0,0-17.88,7.58l-10.54,10.56a24.9,24.9,0,1,0,35.21,35.21l10.54-10.54A25.75,25.75,0,0,0,443.37,449Zm0,0"/><path class="cls-3" d="M707.19,521.31l4.51-4.4a18.4,18.4,0,0,0,0-26.4l-4.51-4.4a25.76,25.76,0,0,0-18-7.3H674.25a24.9,24.9,0,0,0,0,49.79h14.94a25.71,25.71,0,0,0,18-7.29Zm0,0"/><path class="cls-3" d="M675.06,553.57l-6.32-.07a18.38,18.38,0,0,0-18.67,18.67l.07,6.3a25.73,25.73,0,0,0,7.57,17.88l10.55,10.54a24.89,24.89,0,0,0,35.2-35.21l-10.54-10.54a25.74,25.74,0,0,0-17.86-7.57Zm0,0"/><path class="cls-3" d="M480.86,505.05l-6.3-.1a18.39,18.39,0,0,0-18.67,18.68l.08,6.29a25.67,25.67,0,0,0,7.56,17.88l10.54,10.55a24.9,24.9,0,0,0,35.21-35.21L498.74,512.6a25.68,25.68,0,0,0-17.88-7.55Zm0,0"/><path class="cls-3" d="M616.63,507.58l-4.39-4.51a18.41,18.41,0,0,0-26.41,0l-4.4,4.51a25.71,25.71,0,0,0-7.29,18v14.93a24.9,24.9,0,1,0,49.79,0V525.58a25.67,25.67,0,0,0-7.3-18Zm0,0"/><path class="cls-3" d="M643.94,393l-6.32-.09A18.38,18.38,0,0,0,619,411.6l.07,6.29a25.77,25.77,0,0,0,7.57,17.89l10.55,10.54a24.89,24.89,0,1,0,35.2-35.21L661.8,400.57A25.72,25.72,0,0,0,643.94,393Zm0,0"/><path class="cls-3" d="M420.9,552.43l4.51-4.4a18.38,18.38,0,0,0,0-26.4l-4.51-4.41a25.79,25.79,0,0,0-18-7.29H388a24.9,24.9,0,1,0,0,49.79h14.94a25.72,25.72,0,0,0,18-7.29Zm0,0"/><path class="cls-3" d="M564.05,490.19l4.5-4.4a18.38,18.38,0,0,0,0-26.4l-4.5-4.4a25.71,25.71,0,0,0-18-7.29H531.11a24.9,24.9,0,1,0,0,49.79h14.94a25.76,25.76,0,0,0,18-7.3Zm0,0"/><path class="cls-3" d="M480.86,368.13l-6.3-.1a18.39,18.39,0,0,0-18.67,18.67L456,393a25.68,25.68,0,0,0,7.56,17.89l10.54,10.55a24.9,24.9,0,0,0,35.21-35.21L498.74,375.7a25.73,25.73,0,0,0-17.88-7.57Zm0,0"/><g class="cls-4"><path class="cls-5" d="M540.2,737c-24.08,0-46.46-7.83-63-22.05-18.26-15.68-28.21-38.43-28.77-65.82,0-1.73-.05-3.49-.05-5.22A248.54,248.54,0,0,1,476.65,528a255.57,255.57,0,0,1,48.24-64.77,21.94,21.94,0,0,1,30.62,0A255.8,255.8,0,0,1,603.75,528,248.66,248.66,0,0,1,632,643.89c0,1.74,0,3.49,0,5.22-.56,27.39-10.51,50.15-28.77,65.82-16.56,14.22-38.94,22.05-63,22.05Zm0,0"/><path class="cls-6" d="M540.2,737c-24.08,0-46.47-7.83-63-22.05-18.27-15.68-28.22-38.44-28.78-65.82,0-1.73,0-3.49,0-5.22A248.55,248.55,0,0,1,476.65,528a255.57,255.57,0,0,1,48.24-64.77,21.87,21.87,0,0,1,15.3-6.22c-2.83,0-5.65,2.08-7.82,6.22-9.92,18.93-18.31,40.88-24.67,64.77C498.1,564,493.23,603,493.23,643.89c0,1.73,0,3.49,0,5.22.29,27.38,5.38,50.14,14.71,65.82C516.44,729.15,527.88,737,540.2,737Zm0,0"/><path class="cls-7" d="M652.49,643.89q0,2.82-.06,5.64c-2.92,143.86-221.53,143.86-224.46,0q-.06-2.82-.06-5.64,0-9.23.61-18.31H651.88q.6,9.07.61,18.31Zm0,0"/></g><path class="cls-8" d="M539.43,757.42c-55.12-.33-110-36.29-111.46-107.89,0-1.88-.06-3.76-.06-5.64q0-9.24.61-18.31h45.11q-.36,9.07-.36,18.31,0,2.82,0,5.64c.86,71.36,33.37,107.33,66.13,107.89Zm0,0"/><path class="cls-6" d="M600.43,614.18a4.59,4.59,0,0,1-4.57-4.18,351.26,351.26,0,0,0-5.33-36.84,4.6,4.6,0,1,1,9-1.81A362.22,362.22,0,0,1,605,609.16a4.61,4.61,0,0,1-4.17,5l-.42,0Zm0,0"/><path class="cls-6" d="M589.74,554.38A4.6,4.6,0,0,1,585.3,551c-2-7.25-4.23-14.49-6.69-21.52-2.2-6.29-4.63-12.54-7.22-18.57a4.6,4.6,0,1,1,8.46-3.62c2.67,6.22,5.17,12.66,7.44,19.15,2.53,7.23,4.85,14.68,6.88,22.14a4.59,4.59,0,0,1-4.43,5.81Zm0,0"/><path class="cls-5" d="M480.94,604.79l-.54,0a4.59,4.59,0,0,1-4-5.1,342.74,342.74,0,0,1,16.74-73.23,4.6,4.6,0,1,1,8.68,3,333.35,333.35,0,0,0-16.29,71.26,4.59,4.59,0,0,1-4.56,4.06Zm0,0"/><path class="cls-6" d="M565.27,600.7a4.59,4.59,0,0,1-4.58-4.35c-1.3-23.44-3.58-46.22-6.79-67.72-1.17-7.79-2.47-15.48-3.88-22.85a4.6,4.6,0,0,1,9-1.73c1.43,7.5,2.75,15.31,3.93,23.23,3.26,21.77,5.57,44.84,6.88,68.57a4.6,4.6,0,0,1-4.34,4.84Zm0,0"/><path class="cls-6" d="M514.49,614.2h-.18a4.6,4.6,0,0,1-4.42-4.77,758.24,758.24,0,0,1,7.51-82.14c1.15-7.68,2.43-15.25,3.81-22.53a4.6,4.6,0,0,1,9,1.71c-1.35,7.16-2.61,14.62-3.74,22.17a747.57,747.57,0,0,0-7.42,81.14,4.6,4.6,0,0,1-4.59,4.43Zm0,0"/><path class="cls-9" d="M601.54,671.76a4.6,4.6,0,1,1,4.43-3.38,4.63,4.63,0,0,1-4.43,3.38Zm0,0"/><path class="cls-9" d="M544,690.93a4.59,4.59,0,1,1,4.46-3.47,4.63,4.63,0,0,1-4.46,3.47Zm0,0"/><path class="cls-9" d="M482.48,661.37a4.6,4.6,0,1,1,4.51-3.7,4.63,4.63,0,0,1-4.51,3.7Zm0,0"/><path class="cls-10" d="M459.69,682.15a4.6,4.6,0,1,1,4.55-3.93,4.63,4.63,0,0,1-4.55,3.93Zm0,0"/><path class="cls-9" d="M498.46,726.09a4.6,4.6,0,1,1,4.46-3.47,4.63,4.63,0,0,1-4.46,3.47Zm0,0"/></g></svg>