<svg xmlns="http://www.w3.org/2000/svg" viewBox="0 0 1080 1080"><defs><style>.cls-1{fill:#fbaf17;}.cls-2{fill:#f2d423;}.cls-3{fill:#e0ba24;}.cls-4{fill:#e4bd22;}.cls-5{fill:#c16b3c;}.cls-6{fill:#b65d33;}.cls-7{fill:#ecc91a;}.cls-8{fill:#e18f40;}.cls-9{fill:#d67b2f;}</style></defs><title>banana</title><g id="Layer_2" data-name="Layer 2"><circle class="cls-1" cx="540" cy="531.06" r="207.03"/></g><g id="Layer_4" data-name="Layer 4"><path class="cls-2" d="M423.84,543.51c31.72,21.17,95.28,47.26,232.58,20.63-244.17-24.39-210.86-145.37-238.48-100.7C404.52,485.14,407.28,515.05,423.84,543.51Z"/><path class="cls-3" d="M582.56,574.25a622,622,0,0,0,73.86-10.11c-244.17-24.39-210.86-145.37-238.48-100.7a55.25,55.25,0,0,0-4.65,9.49C425.26,481.4,441.26,546.5,582.56,574.25Z"/><path class="cls-2" d="M659.13,562.83c-258.31,51-258.28-80.5-273.17-28.91-9.51,32.92,13.07,73.81,55.92,98.56C482,638.26,549.57,630.42,659.13,562.83Z"/><path class="cls-4" d="M609.09,591.19c15.62-8,32.27-17.4,50-28.36-258.31,51-258.28-80.5-273.17-28.91a54.41,54.41,0,0,0-2.07,12.39C401.28,558.71,445.22,615.31,609.09,591.19Z"/><path class="cls-5" d="M721.73,664.74H358.29a14,14,0,0,0-14,14v15.09a63.92,63.92,0,0,0,63.91,63.91h263.6a63.91,63.91,0,0,0,63.9-63.91V678.72A14,14,0,0,0,721.73,664.74Z"/><path class="cls-6" d="M360.06,693.81V678.72a14,14,0,0,1,14-14H358.29a14,14,0,0,0-14,14v15.09a63.92,63.92,0,0,0,63.91,63.91H424A63.91,63.91,0,0,1,360.06,693.81Z"/><path class="cls-2" d="M665.91,557c-.56,1.37-.86,2.17-.86,2.17C431.77,705.73,385.08,578,389,632.27c.83,11.61,5.39,22.64,13,32.47H627.3c47.79-35.6,61.18-78.92,61.18-78.92l2-.92Z"/><path class="cls-7" d="M390.67,642.45c27.26,6.93,106.85,44.12,289.07-69.74L665.91,557c-.56,1.37-.86,2.17-.86,2.17C431.77,705.73,385.08,578,389,632.27A54.7,54.7,0,0,0,390.67,642.45Z"/><path class="cls-8" d="M721.73,664.74H358.29a14,14,0,0,0-14,14c0,16.27-.17,18.77.73,24.71H735c.9-6,.72-8.59.72-24.71A14,14,0,0,0,721.73,664.74Z"/><path class="cls-9" d="M345,703.43h15.75c-.91-6-.72-8.64-.72-24.71a14,14,0,0,1,14-14H358.29a14,14,0,0,0-14,14C344.3,692.08,344,696.83,345,703.43Z"/><path class="cls-2" d="M704.75,524.06c-20.55-16-39.7,35.09-39.7,35.09l23.43,26.67C743.1,560.64,725.29,540,704.75,524.06Z"/><path class="cls-7" d="M718,536.28a88.11,88.11,0,0,0-13.29-12.22c-20.55-16-39.7,35.09-39.7,35.09L678,573.85C680.54,568,698.94,528.41,718,536.28Z"/></g></svg>