<svg xmlns="http://www.w3.org/2000/svg" xmlns:xlink="http://www.w3.org/1999/xlink" viewBox="0 0 1080 1080"><defs><style>.cls-1{fill:none;}.cls-2{fill:#fbaf17;}.cls-3{clip-path:url(#clip-path);}.cls-4{fill:#754c29;}.cls-5{fill:#8b5e3c;}</style><clipPath id="clip-path"><rect class="cls-1" x="373.96" y="426.23" width="335.17" height="335.54"/></clipPath></defs><title>Cafe</title><g id="Layer_2" data-name="Layer 2"><circle class="cls-2" cx="540" cy="531.06" r="207.03"/></g><g id="Layer_4" data-name="Layer 4"><g class="cls-3"><path class="cls-4" d="M483.5,566c17.39-28.3,42.09-50,69.64-61.67-23.95-45.69-67.47-72.55-108.82-69.64,18.85,21,34.83,57.31,37.73,117.53.7,5.06,1.45,9.43,1.45,13.78Zm0,0"/><path class="cls-5" d="M458.83,546.15c-2.9-66.74-23.94-94.3-40.62-105.92-40.6,26.85-55.87,88.52-34.83,146.55,16.69,45,50.8,76.2,87.08,86.33a167.64,167.64,0,0,1,1.45-53.67,295.29,295.29,0,0,1-13.08-73.29Zm0,0"/><path class="cls-4" d="M657.63,522.2C641,533.82,619.91,561.38,617,627.41,614.1,687.63,596,729,572.76,757.27c2.9,0,5.8.71,8.68.71,45,0,90.68-35.52,111-89.23,21-58.77,5.81-119.7-34.83-146.55Zm0,0"/></g><path class="cls-5" d="M629.78,518.43h-7.26c-45,0-90.69,34.82-111,89.23-21.78,58.77-5.81,119.7,34.83,146.55C568.85,731,589.14,694.69,591.31,636c3.65-61,19.59-96.5,38.47-117.54Zm0,0"/></g></svg>