<svg xmlns="http://www.w3.org/2000/svg" viewBox="0 0 1080 1080"><defs><style>.cls-1{fill:#fbaf17;}.cls-2{fill:#ffd333;}.cls-3{fill:#f8bd2b;}.cls-4{fill:#e96b34;}.cls-5{fill:#bc5729;}.cls-6{fill:#deecf1;}.cls-7{fill:#c6e2e7;}</style></defs><title>caramel</title><g id="Layer_2" data-name="Layer 2"><circle class="cls-1" cx="540" cy="531.06" r="207.03"/></g><g id="Layer_4" data-name="Layer 4"><path class="cls-2" d="M385.6,687.24,424.15,438h231.2L693.9,687.24Zm0,0"/><path class="cls-3" d="M655.35,438H540V687.24H693.9Zm0,0"/><path class="cls-4" d="M487.07,538.44v6.64a21.22,21.22,0,1,0,42.44,0V533a20.85,20.85,0,1,1,41.69,0v60.13a21.22,21.22,0,0,0,21.22,21.22h.33A21.22,21.22,0,0,0,614,593.09V538.44a26.33,26.33,0,0,1,26.33-26.33h26.51L655.35,438H424.15l-11.46,74.1h48.05a26.33,26.33,0,0,1,26.33,26.33Zm0,0"/><path class="cls-5" d="M571.2,533v60.13a21.22,21.22,0,0,0,21.22,21.22h.33A21.22,21.22,0,0,0,614,593.09V538.44a26.33,26.33,0,0,1,26.33-26.33h26.51L655.35,438H540v76.86A20.84,20.84,0,0,1,571.2,533Zm0,0"/><path class="cls-6" d="M670.77,758H409.23a51,51,0,0,1-49.52-38.56l-10.53-41.66H730.82l-10.53,41.66A51,51,0,0,1,670.77,758Zm0,0"/><path class="cls-7" d="M540,677.81V758H670.77a51,51,0,0,0,49.52-38.57l10.53-41.65Zm0,0"/></g></svg>