<svg xmlns="http://www.w3.org/2000/svg" viewBox="0 0 1080 1080"><defs><style>.cls-1{fill:#fbaf17;}.cls-2{fill:#865252;}.cls-3{fill:#704545;}.cls-4{fill:#ed1c24;}.cls-5{fill:#fef2db;}.cls-6{fill:#be1e2d;}</style></defs><title>Chocolat</title><g id="Layer_2" data-name="Layer 2"><circle class="cls-1" cx="540" cy="531.06" r="207.03"/></g><g id="Layer_4" data-name="Layer 4"><path class="cls-2" d="M651.72,449H428.28a8.82,8.82,0,0,0-8.82,8.82v151.9H660.54V457.82a8.82,8.82,0,0,0-8.82-8.82Zm0,0"/><path class="cls-3" d="M660.54,524.69H584.85V449h-9.34v75.69h-71V449h-9.34v75.69H419.46V534h75.69v75.69h9.34V534h71v75.69h9.34V534h75.69Zm0,0"/><path class="cls-3" d="M651.72,449H632.09a8.82,8.82,0,0,1,8.82,8.82v151.9h19.63V457.82a8.82,8.82,0,0,0-8.82-8.82Zm0,0"/><path class="cls-4" d="M628.08,606.72c-22.26-3.17-20.35-16.58-42.6-19.76s-24.18,10.23-46.43,7-20.34-16.58-42.6-19.76-24.17,10.23-46.43,7c-17.25-2.46-20-11.07-30.71-16.29a5.51,5.51,0,0,0-7.95,4.93V737.88A20.62,20.62,0,0,0,432,758.49H648a20.62,20.62,0,0,0,20.62-20.61V605.09a5.51,5.51,0,0,0-6.4-5.44c-11.85,2-16.85,9.55-34.16,7.07Zm0,0"/><path class="cls-5" d="M466.26,699.62H613.74a6.62,6.62,0,0,0,6.62-6.62V652.51a6.62,6.62,0,0,0-6.62-6.62H466.26a6.62,6.62,0,0,0-6.62,6.62V693a6.62,6.62,0,0,0,6.62,6.62Zm0,0"/><path class="cls-6" d="M662.24,599.65c-8.28,1.39-13.22,5.49-21.35,7h0a8,8,0,0,1,8,8V738a20.6,20.6,0,0,1-18.59,20.51H648a20.62,20.62,0,0,0,20.62-20.61V605.09a5.51,5.51,0,0,0-6.4-5.44Zm0,0"/></g></svg>