<svg xmlns="http://www.w3.org/2000/svg" viewBox="0 0 1080 1080"><defs><style>.cls-1{fill:#fbaf17;}.cls-2{fill:#603913;}.cls-3{fill:#f06797;}.cls-4{fill:#ed1c24;}</style></defs><title>Circle cake</title><g id="Layer_2" data-name="Layer 2"><circle class="cls-1" cx="540" cy="531.06" r="207.03"/></g><g id="Layer_4" data-name="Layer 4"><path class="cls-2" d="M364.53,611.08V568.61a7.39,7.39,0,0,0,.58-1.56,64.93,64.93,0,0,1,8.23-24.11c10.36-18.25,25.89-31.11,43.7-41.43,26.13-15.14,54.57-23.31,84.29-27.62a269.33,269.33,0,0,1,120.73,9.83c24.63,7.72,47.47,18.92,66.52,36.76,17.66,16.53,27.67,36.26,26.84,61.2-.9,26.93-.73,53.89-1,80.83-.15,13.11-4.49,24.81-12.24,35.28-11.44,15.45-26.8,26-43.77,34.31-33,16.2-68.27,23.36-104.67,25.43-33.59,1.92-66.49-2.67-98.67-12.3-22.55-6.75-43.85-16.21-62.14-31.44-18.08-15-28.6-33.59-27.62-57.93.54-13.44-.11-26.94-.27-40.41A43.17,43.17,0,0,0,364.53,611.08Zm25.55,17.23c0,2,0,3,0,4,.11,10.85.3,21.69.3,32.53a37.2,37.2,0,0,0,6.26,20.64c7.84,12.08,19.22,20,31.8,26.3,35.79,17.8,74.24,24.26,113.7,24.38A263.46,263.46,0,0,0,624.9,722.7c17.23-5.62,33.69-12.84,47.53-24.92,11.1-9.68,17.76-21.4,17.09-36.75-.41-9.57.1-19.17.19-28.76,0-1,0-2.06,0-3.14-5.52,4.35-10.42,8.62-15.74,12.3s-11.12,6.7-16.6,10.2a4.62,4.62,0,0,0-1.76,3.16c-.34,4.43,0,8.94-.61,13.3-1,6.94-7.28,11.8-14.31,11.86a14.78,14.78,0,0,1-14.44-11.38c-.23-1-.44-2-.65-2.93-7.8,2-15.36,4.09-23,6-6.42,1.62-6.44,1.56-6.6,8.11-.21,8.22-6.12,14.59-13.93,15-8.27.43-14.75-5-15.92-13.26-.15-1.09-.25-2.19-.4-3.52l-23,1.58v3.9c0,10.62.1,21.23-.06,31.84a15,15,0,0,1-14,14.67c-7.19.66-14.12-4.53-15.73-11.94a28.55,28.55,0,0,1-.45-5.78c0-8.37,0-16.75,0-26-1,1.38-1.46,2-1.92,2.59-4,5.1-9.3,7-15.49,5.54s-10-5.76-11.13-12.07a31.77,31.77,0,0,1-.22-6.83c.09-2.41-1-3-3.39-2.47,0,8-.29,16,.07,23.94.43,9.37-6.67,16.65-15.28,16.63s-15-7-15-16.52c0-6.28,0-12.56,0-18.84,0-.82-.16-1.65-.26-2.65-6.57,4.77-12,5.62-17.43,2.76-6.19-3.25-8.35-8.69-8.2-15.36a72.48,72.48,0,0,0-.07-8.21,4.55,4.55,0,0,0-1.78-3.16C411,645.3,400,638.48,390.08,628.31ZM539.6,587c12.83-.43,24.81-1.89,36.41-5.6,8.08-2.57,15.86-5.87,22-12,7.16-7.14,7.23-15.56-.09-22.51a36.9,36.9,0,0,0-10-7c-31-14-62.26-14-93.48-.87a42.06,42.06,0,0,0-12.29,8.45c-6.77,6.51-6.6,14.72,0,21.49a35.16,35.16,0,0,0,7.21,5.7C505.06,583.87,522.53,586.09,539.6,587Zm41.94,16.73a10.06,10.06,0,0,0-3.15,1c-6.62,4.66-13.26,9.3-19.67,14.23-3,2.31-3.18,6.55-1,9.59s6.28,4.27,9.39,2.17q10.06-6.8,19.67-14.23c2.54-2,3.11-5,1.83-8.08C587.38,605.43,585,604.08,581.54,603.7ZM475,522.8a9.36,9.36,0,0,0,3-1c6.61-4.66,13.24-9.31,19.63-14.26,3-2.31,3.09-6.62.89-9.6s-6.31-4.13-9.43-2q-10,6.81-19.66,14.22c-2.6,2-2.91,5.1-1.69,8.11S471.3,522.6,475,522.8Zm138.66-20.53c-1.84-2.42-3-4.79-4.91-6.26-2.33-1.82-5.26-1.47-7.69.24-6.14,4.34-12.27,8.71-18.27,13.24a7.14,7.14,0,0,0-1.62,10.3,7.28,7.28,0,0,0,10.35,1.48c6-4.17,11.94-8.39,17.69-12.88C611,507.05,611.93,504.74,613.68,502.27ZM473.82,585.66a7.26,7.26,0,0,0-2.46.75c-6.79,4.8-13.63,9.53-20.21,14.61-2.85,2.21-2.9,6.38-.83,9.34s6.14,4.3,9.09,2.33c7-4.69,13.83-9.65,20.45-14.84,2.41-1.89,2.55-5,1.25-7.89S477.46,585.69,473.82,585.66Zm-37.56-24.17a11.17,11.17,0,0,0-3.18,1.19c-6.33,4.45-12.66,8.94-18.82,13.62a7.21,7.21,0,0,0-1.37,9.84,7.09,7.09,0,0,0,9.69,2.11c6.58-4.5,13-9.2,19.36-14,2.59-2,3.12-5,1.92-8.08S440.24,561.56,436.26,561.49Zm234.48.69c-1.9-2.4-3.13-4.73-5-6.18-2.37-1.8-5.25-1.3-7.68.42-6,4.3-12.07,8.6-18,13.05a7.29,7.29,0,0,0-1.86,10.28c2.39,3.42,6.82,4.17,10.58,1.54,5.88-4.12,11.76-8.25,17.39-12.69C667.94,567.18,668.94,564.77,670.74,562.18Z"/><path class="cls-3" d="M390.08,628.31c9.91,10.17,20.94,17,32.35,23.28a4.55,4.55,0,0,1,1.78,3.16,72.48,72.48,0,0,1,.07,8.21c-.15,6.67,2,12.11,8.2,15.36,5.46,2.86,10.86,2,17.43-2.76.1,1,.26,1.83.26,2.65,0,6.28,0,12.56,0,18.84,0,9.5,6.32,16.5,15,16.52s15.71-7.26,15.28-16.63c-.36-8-.07-15.94-.07-23.94,2.39-.52,3.48.06,3.39,2.47a31.77,31.77,0,0,0,.22,6.83c1.14,6.31,4.89,10.59,11.13,12.07s11.49-.44,15.49-5.54c.46-.6.9-1.21,1.92-2.59,0,9.26,0,17.64,0,26A28.55,28.55,0,0,0,513,718c1.61,7.41,8.54,12.6,15.73,11.94a15,15,0,0,0,14-14.67c.16-10.61,0-21.22.06-31.84v-3.9l23-1.58c.15,1.33.25,2.43.4,3.52,1.17,8.31,7.65,13.69,15.92,13.26,7.81-.41,13.72-6.78,13.93-15,.16-6.55.18-6.49,6.6-8.11,7.59-1.92,15.15-4,23-6,.21,1,.42,2,.65,2.93A14.78,14.78,0,0,0,640.69,680c7-.06,13.26-4.92,14.31-11.86.66-4.36.27-8.87.61-13.3a4.62,4.62,0,0,1,1.76-3.16c5.48-3.5,11.27-6.52,16.6-10.2s10.22-7.95,15.74-12.3c0,1.08,0,2.11,0,3.14-.09,9.59-.6,19.19-.19,28.76.67,15.35-6,27.07-17.09,36.75-13.84,12.08-30.3,19.3-47.53,24.92a263.46,263.46,0,0,1-82.76,13.42c-39.46-.12-77.91-6.58-113.7-24.38-12.58-6.26-24-14.22-31.8-26.3a37.2,37.2,0,0,1-6.26-20.64c0-10.84-.19-21.68-.3-32.53C390.07,631.29,390.08,630.3,390.08,628.31Z"/><path class="cls-4" d="M539.6,587c-17.07-.88-34.54-3.1-50.25-12.38a35.16,35.16,0,0,1-7.21-5.7c-6.58-6.77-6.75-15,0-21.49A42.06,42.06,0,0,1,494.45,539c31.22-13.08,62.5-13.08,93.48.87a36.9,36.9,0,0,1,10,7c7.32,6.95,7.25,15.37.09,22.51-6.15,6.13-13.93,9.43-22,12C564.41,585.08,552.43,586.54,539.6,587Z"/><path class="cls-3" d="M581.54,603.7c3.49.38,5.84,1.73,7.05,4.69,1.28,3.12.71,6.12-1.83,8.08q-9.6,7.41-19.67,14.23c-3.11,2.1-7.24.86-9.39-2.17s-2-7.28,1-9.59c6.41-4.93,13-9.57,19.67-14.23A10.06,10.06,0,0,1,581.54,603.7Z"/><path class="cls-3" d="M475,522.8c-3.72-.2-6.09-1.6-7.27-4.53s-.91-6.11,1.69-8.11q9.63-7.4,19.66-14.22c3.12-2.12,7.25-.95,9.43,2s2.09,7.29-.89,9.6c-6.39,4.95-13,9.6-19.63,14.26A9.36,9.36,0,0,1,475,522.8Z"/><path class="cls-3" d="M613.68,502.27c-1.75,2.47-2.73,4.78-4.45,6.12-5.75,4.49-11.71,8.71-17.69,12.88a7.28,7.28,0,0,1-10.35-1.48,7.14,7.14,0,0,1,1.62-10.3c6-4.53,12.13-8.9,18.27-13.24,2.43-1.71,5.36-2.06,7.69-.24C610.65,497.48,611.84,499.85,613.68,502.27Z"/><path class="cls-3" d="M473.82,585.66c3.64,0,6,1.44,7.29,4.3s1.16,6-1.25,7.89C473.24,603,466.4,608,459.41,612.69c-3,2-7.07.55-9.09-2.33s-2-7.13.83-9.34c6.58-5.08,13.42-9.81,20.21-14.61A7.26,7.26,0,0,1,473.82,585.66Z"/><path class="cls-3" d="M436.26,561.49c4,.07,6.4,1.58,7.6,4.64s.67,6.09-1.92,8.08c-6.33,4.84-12.78,9.54-19.36,14a7.09,7.09,0,0,1-9.69-2.11,7.21,7.21,0,0,1,1.37-9.84c6.16-4.68,12.49-9.17,18.82-13.62A11.17,11.17,0,0,1,436.26,561.49Z"/><path class="cls-3" d="M670.74,562.18c-1.8,2.59-2.8,5-4.6,6.42-5.63,4.44-11.51,8.57-17.39,12.69-3.76,2.63-8.19,1.88-10.58-1.54A7.29,7.29,0,0,1,640,569.47c5.92-4.45,12-8.75,18-13.05,2.43-1.72,5.31-2.22,7.68-.42C667.61,557.45,668.84,559.78,670.74,562.18Z"/></g></svg>