<svg xmlns="http://www.w3.org/2000/svg" xmlns:xlink="http://www.w3.org/1999/xlink" viewBox="0 0 1080 1080"><defs><style>.cls-1{fill:none;}.cls-2{fill:#fbaf17;}.cls-3{fill:#d9e9f8;}.cls-4{fill:#4f73b9;}.cls-5{fill:#b71f2d;}.cls-6{fill:#8a1724;}.cls-7{fill:#2d4882;}.cls-8{fill:#293d7c;}.cls-9{fill:#242d62;}.cls-10{fill:#eff5fc;}.cls-11{fill:#fff;}.cls-12{clip-path:url(#clip-path);}.cls-13{fill:#31a0da;}</style><clipPath id="clip-path"><circle class="cls-1" cx="540" cy="531.06" r="207.03"/></clipPath></defs><title>Creame</title><g id="Layer_2" data-name="Layer 2"><circle class="cls-2" cx="540" cy="531.06" r="207.03"/><rect class="cls-3" x="465.69" y="516.13" width="149.14" height="52.39" rx="26.19"/><circle class="cls-4" cx="612.97" cy="572.37" r="30.04"/><circle class="cls-4" cx="463.83" cy="572.37" r="30.04"/><path class="cls-5" d="M688.79,696.47c.06-1.66.1-3.32.1-5,0-78.64-66.54-142.38-148.63-142.38S391.63,612.84,391.63,691.48c0,1.67,0,3.33.1,5Z"/><path class="cls-5" d="M688.79,696.47c.06-1.66.1-3.32.1-5,0-78.64-66.54-142.38-148.63-142.38S391.63,612.84,391.63,691.48c0,1.67,0,3.33.1,5H688.79Z"/><path class="cls-6" d="M391.73,696.47c-2.33-89.67,74-139.57,121.66-145.05-39.84,37.13-87.1,65.57-90.73,145.05Z"/><path class="cls-7" d="M692,644.8l-12.48-12.49a6.48,6.48,0,0,0-9.15,0L657.9,644.8a6.36,6.36,0,0,0-1.87,4h-.65a6.38,6.38,0,0,0-1.87-4L641,632.31a6.48,6.48,0,0,0-9.15,0L619.4,644.8a6.38,6.38,0,0,0-1.87,4.08h-.64A6.38,6.38,0,0,0,615,644.8l-12.48-12.49a6.48,6.48,0,0,0-9.15,0L580.91,644.8a6.37,6.37,0,0,0-1.88,4.13h-.63a6.49,6.49,0,0,0-1.88-4.13L564,632.31a6.48,6.48,0,0,0-9.15,0L542.41,644.8a6.49,6.49,0,0,0-1.88,4.18h-.63A6.43,6.43,0,0,0,538,644.8l-12.48-12.49a6.48,6.48,0,0,0-9.15,0L503.92,644.8A6.4,6.4,0,0,0,502,649h-.63a6.42,6.42,0,0,0-1.88-4.24l-12.48-12.49a6.48,6.48,0,0,0-9.15,0L465.42,644.8a6.45,6.45,0,0,0-1.88,4.29h-.62A6.45,6.45,0,0,0,461,644.8l-12.48-12.49a6.48,6.48,0,0,0-9.15,0L426.93,644.8a6.42,6.42,0,0,0-1.89,4.34h-.61a6.44,6.44,0,0,0-1.89-4.35l-12.48-12.49a6.48,6.48,0,0,0-9.15,0L388.43,644.8a6.45,6.45,0,0,0-1.89,4.4h0v40.24L417.77,756H661.22l32.65-66.53V650A6.44,6.44,0,0,0,692,644.8Z"/><path class="cls-8" d="M425.15,648.25a7,7,0,0,0-.11.89h-.61a6.44,6.44,0,0,0-1.89-4.35l-12.48-12.49a6.48,6.48,0,0,0-9.15,0L388.43,644.8a6.45,6.45,0,0,0-1.89,4.4h0v40.24L417.77,756h42Z"/><circle class="cls-8" cx="540.26" cy="553.12" r="30.04"/><path class="cls-9" d="M540.26,583.16a30,30,0,0,1,0-60.08C520.23,523.08,520.23,583.16,540.26,583.16Z"/><path class="cls-3" d="M540.91,421.45c5.2,32.64-35.79,41.55-38.42,69.32-.16,1.59.15,3.11,1.75,3.11l66.33-.21c3.25,0,4.65-2.89,5.48-6,6.88-26.07-10.94-52.7-32-67.46C542.87,419.34,540.68,420,540.91,421.45Z"/><rect class="cls-10" x="493.87" y="490.09" width="92.52" height="26.04" rx="13.02"/><circle class="cls-11" cx="492.74" cy="429.53" r="9.71"/><circle class="cls-11" cx="448.81" cy="488.76" r="15.02"/><circle class="cls-11" cx="442.86" cy="410.74" r="9.07"/><circle class="cls-11" cx="638.81" cy="481.25" r="7.51"/><g class="cls-12"><path class="cls-6" d="M601.59,409.57l-41.85,32.25a2.68,2.68,0,0,1-3.66-.38L548.84,433a2.67,2.67,0,0,1,.19-3.67l38.25-36.43a2.67,2.67,0,0,1,3.87.19L602,405.72A2.66,2.66,0,0,1,601.59,409.57Z"/><circle class="cls-10" cx="602.14" cy="393.93" r="31.04"/><rect class="cls-13" x="578.97" y="311.71" width="144.4" height="73.99" transform="translate(-63.9 533.9) rotate(-42.69)"/></g></g></svg>