<svg xmlns="http://www.w3.org/2000/svg" viewBox="0 0 1080 1080"><defs><style>.cls-1{fill:#fbaf17;}.cls-2{fill:#9160a8;}.cls-3{fill:#824b9e;}.cls-4{fill:#e2cee5;}.cls-5{fill:#8ed8f8;}.cls-6{fill:#ef3955;}.cls-7{fill:#ffce04;}.cls-8{fill:#f0542c;}.cls-9{fill:#d9689e;}.cls-10{fill:#e4b823;}</style></defs><title>double laye cake</title><g id="Layer_3" data-name="Layer 3"><circle class="cls-1" cx="540" cy="531.06" r="207.03"/></g><g id="Layer_4" data-name="Layer 4"><path class="cls-2" d="M693.13,666.35a30.62,30.62,0,0,1-30.62-30.62,30.63,30.63,0,0,1-61.26,0,30.63,30.63,0,0,1-61.25,0,30.63,30.63,0,0,1-61.25,0,30.63,30.63,0,0,1-61.26,0,30.63,30.63,0,0,1-55.13,18.37V746a12.25,12.25,0,0,0,12.26,12.25H705.38A12.25,12.25,0,0,0,717.64,746V654.1a30.69,30.69,0,0,1-24.51,12.25Zm0,0"/><path class="cls-3" d="M717.64,733.73V746a12.3,12.3,0,0,1-12.26,12.25H374.62A12.3,12.3,0,0,1,362.36,746V733.73A12.3,12.3,0,0,0,374.62,746H705.38a12.3,12.3,0,0,0,12.26-12.25Zm0,0"/><path class="cls-4" d="M570.63,666.35a30.62,30.62,0,0,0,30.62-30.62H540a30.62,30.62,0,0,0,30.63,30.62Zm0,0"/><path class="cls-4" d="M631.88,666.35a30.63,30.63,0,0,0,30.63-30.62H601.25a30.63,30.63,0,0,0,30.63,30.62Zm0,0"/><path class="cls-4" d="M705.38,635.73H662.51a30.63,30.63,0,0,0,55.13,18.37V648a12.25,12.25,0,0,0-12.26-12.25Zm0,0"/><path class="cls-4" d="M386.87,666.35a30.62,30.62,0,0,0,30.62-30.62H374.62A12.25,12.25,0,0,0,362.36,648v6.12a30.69,30.69,0,0,0,24.51,12.25Zm0,0"/><path class="cls-4" d="M448.12,666.35a30.63,30.63,0,0,0,30.63-30.62H417.49a30.63,30.63,0,0,0,30.63,30.62Zm0,0"/><path class="cls-4" d="M509.37,666.35A30.62,30.62,0,0,0,540,635.73H478.75a30.62,30.62,0,0,0,30.62,30.62Zm0,0"/><path class="cls-5" d="M478.75,635.73H680.88V562.22a30.27,30.27,0,0,1-18.37,6.13,30.63,30.63,0,0,1-30.63-30.63,30.63,30.63,0,1,1-61.25,0,30.63,30.63,0,0,1-61.26,0,30.63,30.63,0,1,1-61.25,0,30.63,30.63,0,0,1-30.63,30.63,30.27,30.27,0,0,1-18.37-6.13v73.51Zm0,0"/><path class="cls-6" d="M540,568.35a30.64,30.64,0,0,0,30.63-30.63H509.37A30.64,30.64,0,0,0,540,568.35Zm0,0"/><path class="cls-6" d="M601.25,568.35a30.63,30.63,0,0,0,30.63-30.63H570.63a30.63,30.63,0,0,0,30.62,30.63Zm0,0"/><path class="cls-6" d="M662.51,568.35a30.27,30.27,0,0,0,18.37-6.13V550a12.25,12.25,0,0,0-12.25-12.25H631.88a30.63,30.63,0,0,0,30.63,30.63Zm0,0"/><path class="cls-6" d="M478.75,568.35a30.63,30.63,0,0,0,30.62-30.63H448.12a30.63,30.63,0,0,0,30.63,30.63Zm0,0"/><path class="cls-6" d="M448.12,537.72H411.37A12.25,12.25,0,0,0,399.12,550v12.25a30.27,30.27,0,0,0,18.37,6.13,30.63,30.63,0,0,0,30.63-30.63Zm0,0"/><rect class="cls-7" x="527.75" y="476.47" width="24.5" height="61.25"/><path class="cls-8" d="M540,458.09a18.38,18.38,0,0,0,18.38-18.38C558.38,429.56,540,403,540,403s-18.38,26.6-18.38,36.75A18.38,18.38,0,0,0,540,458.09Zm0,0"/><rect class="cls-7" x="595.13" y="476.47" width="24.5" height="61.25"/><path class="cls-8" d="M607.38,458.09a18.38,18.38,0,0,0,18.38-18.38c0-10.15-18.38-36.75-18.38-36.75S589,429.56,589,439.71a18.38,18.38,0,0,0,18.38,18.38Zm0,0"/><rect class="cls-7" x="460.37" y="476.47" width="24.5" height="61.25"/><path class="cls-8" d="M454.24,439.71a18.38,18.38,0,0,0,36.76,0c0-10.15-18.38-36.75-18.38-36.75s-18.38,26.6-18.38,36.75Zm0,0"/><rect class="cls-9" x="399.12" y="623.47" width="281.77" height="12.25"/><rect class="cls-10" x="460.37" y="476.47" width="24.5" height="6.13"/><rect class="cls-10" x="527.75" y="476.47" width="24.5" height="6.13"/><rect class="cls-10" x="595.13" y="476.47" width="24.5" height="6.13"/></g></svg>