<svg xmlns="http://www.w3.org/2000/svg" xmlns:xlink="http://www.w3.org/1999/xlink" viewBox="0 0 1080 1080"><defs><style>.cls-1{fill:none;}.cls-2{fill:#fbaf17;}.cls-3{fill:#8f4098;}.cls-4{fill:#f8ed3a;}.cls-5{fill:#ef4681;}.cls-6{fill:#fff;}.cls-7{fill:#a1a9d5;}.cls-8{clip-path:url(#clip-path);}.cls-9{fill:#6a2f90;}</style><clipPath id="clip-path"><path class="cls-1" d="M465.81,540.33H611.12a30,30,0,0,1,30,30v83.35a0,0,0,0,1,0,0H435.81a0,0,0,0,1,0,0V570.33A30,30,0,0,1,465.81,540.33Z"/></clipPath></defs><title>Fondant</title><g id="Layer_2" data-name="Layer 2"><circle class="cls-2" cx="540" cy="531.06" r="207.03"/><path class="cls-3" d="M465.81,540.33H611.12a30,30,0,0,1,30,30v83.35a0,0,0,0,1,0,0H435.81a0,0,0,0,1,0,0V570.33A30,30,0,0,1,465.81,540.33Z"/><circle class="cls-4" cx="456.56" cy="623.5" r="20.67"/><circle class="cls-4" cx="497.91" cy="623.5" r="20.67" transform="translate(-278.25 438.48) rotate(-37.98)"/><circle class="cls-4" cx="539.26" cy="623.5" r="20.67"/><circle class="cls-4" cx="580.6" cy="623.5" r="20.67" transform="translate(-140.58 169.91) rotate(-14.87)"/><circle class="cls-4" cx="621.95" cy="623.5" r="20.67"/><path class="cls-5" d="M404.74,623.5H673.61a30,30,0,0,1,30,30V730a0,0,0,0,1,0,0H374.74a0,0,0,0,1,0,0V653.5A30,30,0,0,1,404.74,623.5Z"/><path class="cls-6" d="M649.49,690.81c-16.21,0-24.57-6.07-31.94-11.43-6.6-4.79-11.8-8.57-23.13-8.57s-16.54,3.78-23.13,8.57c-7.38,5.36-15.74,11.43-31.94,11.43s-24.57-6.07-31.94-11.43c-6.59-4.79-11.8-8.57-23.13-8.57s-16.54,3.78-23.13,8.57c-7.37,5.36-15.73,11.43-31.94,11.43s-24.56-6.07-31.94-11.43c-6.59-4.79-11.79-8.57-23.12-8.57v-15c16.2,0,24.56,6.07,31.94,11.43,6.59,4.79,11.79,8.57,23.12,8.57s16.54-3.78,23.13-8.57c7.38-5.36,15.74-11.43,31.94-11.43s24.56,6.07,31.94,11.43c6.59,4.79,11.8,8.57,23.13,8.57s16.53-3.78,23.12-8.57c7.38-5.36,15.74-11.43,31.95-11.43s24.56,6.07,31.94,11.43c6.59,4.79,11.8,8.57,23.13,8.57S666,672,672.62,667.24c7.38-5.36,15.74-11.43,31.94-11.43v15c-11.33,0-16.53,3.78-23.13,8.57C674.06,684.74,665.69,690.81,649.49,690.81Z"/><path class="cls-7" d="M355.73,727.42H724.52a0,0,0,0,1,0,0v10.89a20,20,0,0,1-20,20H375.73a20,20,0,0,1-20-20V727.42A0,0,0,0,1,355.73,727.42Z"/><g class="cls-8"><path class="cls-9" d="M616.46,523.64a28,28,0,0,0-25.76,17,28,28,0,0,0-51.5,0,28,28,0,0,0-51.51,0,28,28,0,1,0,0,21.91,28,28,0,0,0,51.51,0,28,28,0,0,0,51.5,0,28,28,0,1,0,25.76-38.93Z"/></g><circle class="cls-4" cx="540" cy="462.43" r="13.31"/><path class="cls-5" d="M517,473.74h42.91a30,30,0,0,1,30,30V540a0,0,0,0,1,0,0H487a0,0,0,0,1,0,0V503.74A30,30,0,0,1,517,473.74Z"/><path class="cls-6" d="M572.77,533.34c-7.59,0-10.82-7.53-13.18-13-.91-2.14-2.83-6.59-4-7-1.18.38-3.09,4.83-4,7-2.36,5.5-5.59,13-13.17,13s-10.82-7.53-13.17-13c-.92-2.14-2.83-6.59-3.95-7-1.19.38-3.09,4.83-4,7-2.36,5.5-5.59,13-13.17,13s-10.81-7.53-13.17-13c-.92-2.14-2.83-6.59-3.95-7l0-10c7.58,0,10.81,7.53,13.17,13,.92,2.14,2.83,6.59,3.95,7,1.18-.38,3.09-4.83,4-7,2.35-5.5,5.58-13,13.17-13s10.81,7.53,13.17,13c.91,2.14,2.83,6.59,3.95,7,1.18-.38,3.09-4.83,4-7,2.36-5.5,5.59-13,13.17-13s10.82,7.53,13.17,13c.92,2.14,2.83,6.6,4,7,1.19-.37,3.1-4.83,4-7,2.36-5.5,5.59-13,13.17-13v10c-1.15.38-3.06,4.83-4,7C583.58,525.81,580.35,533.34,572.77,533.34Z"/><rect class="cls-6" x="397.89" y="454.41" width="43.88" height="13.31" rx="6.65" transform="translate(-174.29 271.69) rotate(-30)"/><rect class="cls-6" x="455.83" y="393.8" width="32.46" height="13.31" rx="6.65" transform="translate(-136.98 289.68) rotate(-30)"/><rect class="cls-6" x="402.95" y="519.58" width="49.41" height="13.31" rx="6.65" transform="translate(-205.82 284.33) rotate(-30)"/><rect class="cls-6" x="637.91" y="501.44" width="61.17" height="13.31" rx="6.65" transform="translate(-164.49 402.32) rotate(-30)"/></g></svg>