<svg xmlns="http://www.w3.org/2000/svg" xmlns:xlink="http://www.w3.org/1999/xlink" viewBox="0 0 1080 1080"><defs><style>.cls-1{fill:none;}.cls-2{fill:#fbaf17;}.cls-3{clip-path:url(#clip-path);}.cls-4{fill:#6a8b3b;}.cls-5{fill:#914e2b;}.cls-6{fill:#af7e56;}</style><clipPath id="clip-path"><rect class="cls-1" x="386.83" y="451.12" width="306.34" height="313.91"/></clipPath></defs><title>Hazelnut </title><g id="Layer_2" data-name="Layer 2"><circle class="cls-2" cx="540" cy="531.06" r="207.03"/></g><g id="Layer_4" data-name="Layer 4"><g class="cls-3"><path class="cls-4" d="M683.07,663.74c19.88-53,3.26-108.86-45.92-158-49.77-49.77-106.4-66.24-159.92-45.18,35.88,55.4,71.7,49.39,71.7,49.39-41.2,48.54-24.37,92.86-21.57,99.3,6.46,2.79,50.78,19.63,99.29-21.59,0,0-6.53,38.79,56.42,76.09Zm0,0"/><path class="cls-5" d="M626.65,587.65c-48.51,41.22-92.83,24.38-99.29,21.59-2.8-6.44-19.63-50.76,21.57-99.3,0,0-29.27,4.75-61.4-35.21-16.09,6.93-31.85,17.79-46.84,32.81-59.4,59.38-67,199.26-35.86,230.41,33.7,34.56,171,23.54,230.44-35.83,15.35-15.39,26.34-31.51,33.24-48-47.12-34-41.86-66.46-41.86-66.46Zm0,0"/><path class="cls-6" d="M430.38,751.82c-13.7,0-24.16-3.41-30.59-10a6.3,6.3,0,0,1,9-8.8c5.12,5.23,16.38,7.3,31,5.66,33.33-3.72,79.13-26.13,98.12-57.12a6.3,6.3,0,1,1,10.74,6.58c-21.79,35.59-71.62,59-107.45,63.07a97.09,97.09,0,0,1-10.86.64Zm0,0"/><path class="cls-6" d="M402.19,741.61a6.25,6.25,0,0,1-4.4-1.79c-8.28-8.06-11.51-22.37-9.36-41.42,4-35.86,27.48-85.69,63.06-107.48a6.3,6.3,0,1,1,6.59,10.74c-31,19-53.4,64.79-57.12,98.12-1.63,14.62.4,25.92,5.63,31a6.29,6.29,0,0,1-4.4,10.81Zm0,0"/></g><path class="cls-6" d="M404.43,743.76a6.51,6.51,0,0,1-4.52-1.82c-3-2.83-4.28-7.13-3.91-12.74,1.29-20.37,25.88-62.32,52.78-82.26A6.29,6.29,0,0,1,456.29,657c-30.28,22.5-51.36,68.73-47.45,76.05a6.21,6.21,0,0,1,.09,8.81,6.27,6.27,0,0,1-4.5,1.87Zm0,0"/></g></svg>