<svg xmlns="http://www.w3.org/2000/svg" viewBox="0 0 1080 1080"><defs><style>.cls-1{isolation:isolate;}.cls-2{fill:#8ed8f8;}.cls-10,.cls-11,.cls-13,.cls-15,.cls-2,.cls-8{mix-blend-mode:multiply;}.cls-15,.cls-3{fill:#62408a;}.cls-4{fill:#6d4e91;}.cls-5,.cls-8{fill:#ffda47;}.cls-13,.cls-6{fill:#f06797;}.cls-7{fill:#f27da3;}.cls-10,.cls-9{fill:#fee474;}.cls-10{opacity:0.37;}.cls-11{opacity:0.9;}.cls-12{fill:#dc2b5a;}.cls-13{opacity:0.28;}.cls-14{fill:#69498f;}.cls-15{opacity:0.19;}.cls-16,.cls-18{fill:#ffefb5;}.cls-16,.cls-17,.cls-19,.cls-20{mix-blend-mode:soft-light;}.cls-19{fill:#f9c7d4;}.cls-20{fill:#a18eb8;}</style></defs><title>logo</title><g class="cls-1"><g id="Layer_1" data-name="Layer 1"><path class="cls-2" d="M361.69,277.73c-.2,7-10.89,11.37-6,38.36s13.14,128.28,12.82,134.39-25.34,9.87-29.69,21.3,13,119.75,12.5,122.93-103.51,10.4-106.23,26.12,58.87,221,67.58,232.41,437.17,4.9,442.63,0,55-138.74,55-237.68c0-8.42-122-16.4-122-20.85s24.5-126.56,21.23-136.28-53.81-17.33-55.49-18.7,22.83-141.15,21.19-154-13-6.75-13.86-11.71,1.88-59.6-16.63-68.49-43.21,22.16-48.28,21.06-23.43-48.46-43.65-48.46S512.27,223.33,508,223s-24-40.57-41.86-41.12-31,56.56-37.53,58.5-26.68-41.85-47.09-37.1S362.24,258.66,361.69,277.73Z"/><path class="cls-3" d="M398.26,348.65c-3.91-5.19-15.54-53.8-15.09-59.46s21.91-10.58,25-7.45S422,343.46,422,343.46Z"/><path class="cls-4" d="M402.81,280.81c-7.4.39-19.31,4.18-19.64,8.38-.21,2.6,2.13,14.23,5.1,26.56Q395,298,402.81,280.81Z"/><path class="cls-4" d="M404.66,347.25,422,343.46s-2.23-12.27-4.95-25.87A311.77,311.77,0,0,0,404.66,347.25Z"/><path class="cls-4" d="M414.06,303.14c-1.4-6.48-2.77-12.36-3.9-16.32-6.62,14.6-12.51,29.5-17.85,44.62,1.35,4.89,2.66,9.21,3.8,12.37A308.33,308.33,0,0,1,414.06,303.14Z"/><path class="cls-5" d="M390.91,273.37c21.47-6.17-2.54-40.92-7.75-40C376.27,234.58,367.39,280.13,390.91,273.37Z"/><path class="cls-6" d="M465.38,339.86c-3.55-6.18-9.56-60.69-8.3-66.79s25.3-8.52,28.28-4.69,6.57,69.08,6.57,69.08Z"/><path class="cls-7" d="M472.54,266.77c-7.19.7-14.77,2.94-15.46,6.3-.57,2.77.35,15.5,1.87,29.16C463.69,290.49,468.41,278.74,472.54,266.77Z"/><path class="cls-7" d="M469.2,339.51c6.21-17.71,12.15-35.51,18-53.34a4.91,4.91,0,0,1,.86-1.57c-.87-8.58-1.81-15.08-2.69-16.22a5.54,5.54,0,0,0-3.17-1.43c-6.17,18.27-13.79,36-20.86,54,1.38,9.33,2.86,16.87,4.05,18.95Z"/><path class="cls-7" d="M479.25,338.61l12.68-1.15s-.8-14.57-2-30.34Q484.72,322.9,479.25,338.61Z"/><path class="cls-5" d="M470,256.9c24.22-3.78,2.82-44.9-3-44.61C459.34,212.66,443.44,261.05,470,256.9Z"/><path class="cls-6" d="M618.81,348.65c3.91-5.19,15.54-53.8,15.09-59.46s-21.91-10.58-25-7.45-13.79,61.72-13.79,61.72Z"/><path class="cls-7" d="M631.71,302.93c1.43-6.79,2.32-12.09,2.19-13.74-.23-2.92-6.06-5.64-12.09-7.16Q626.7,292.52,631.71,302.93Z"/><path class="cls-7" d="M611.19,280.89a4.23,4.23,0,0,0-2.33.85c-.92.92-2.48,6.6-4.23,14.16,6.28,13.57,12.54,27.14,18.63,40.79,1.68-5.65,3.52-12.59,5.18-19.42Q619.67,299.15,611.19,280.89Z"/><path class="cls-7" d="M601.4,310.8c-3.3,16-6.33,32.66-6.33,32.66l23.41,5.11C612.92,335.93,607.19,323.35,601.4,310.8Z"/><path class="cls-5" d="M626.16,273.37c-21.47-6.17,2.55-40.92,7.76-40C640.81,234.58,649.68,280.13,626.16,273.37Z"/><path class="cls-3" d="M554.08,337.19c3.31-6.32,7.24-61,5.75-67.06s-25.61-7.55-28.45-3.6-3.92,69.27-3.92,69.27Z"/><path class="cls-4" d="M559.91,285.14c.33-7.49.35-13.27-.08-15-.88-3.55-9.55-5.54-17.14-5.77C548.34,271.37,554,278.34,559.91,285.14Z"/><path class="cls-4" d="M532.13,265.86a2.6,2.6,0,0,0-.75.67c-.77,1.07-1.41,6.7-1.93,14.31,9.44,13.64,18.35,27.63,27.46,41.49.88-7.14,1.67-15.87,2.25-24.15C549.77,287.75,540.94,276.82,532.13,265.86Z"/><path class="cls-4" d="M528.63,296c-.82,18.88-1.17,39.8-1.17,39.8l26.62,1.39a9,9,0,0,0,.58-1.58C545.88,322.48,537.41,309.13,528.63,296Z"/><path class="cls-5" d="M546.32,254.38c-24.35-2.86-4.54-44.77,1.27-44.7C555.26,209.77,573,257.51,546.32,254.38Z"/><path class="cls-8" d="M389.68,272c13.31-3.82-1.58-25.37-4.81-24.8C380.6,248,375.09,276.2,389.68,272Z"/><path class="cls-8" d="M469.54,254.37c15-2.35,1.75-27.84-1.84-27.66C462.94,226.94,453.09,256.94,469.54,254.37Z"/><path class="cls-8" d="M626.42,270.72c-13.31-3.83,1.58-25.37,4.81-24.8C635.5,246.67,641,274.91,626.42,270.72Z"/><path class="cls-8" d="M546.77,253.61c-15.1-1.77-2.82-27.75.78-27.71C552.31,226,563.3,255.55,546.77,253.61Z"/><path class="cls-9" d="M381.64,345.86c-6.68,2.67,8.78,107.83,39.67,140.81s173.76,14.79,193.18-6.39c15.84-17.26,30-102.57,22.35-146.55C636.15,329.73,498.82,299,381.64,345.86Z"/><path class="cls-10" d="M487.46,434c-41.26-15.82-70.93-54.91-77.38-97.93-9.56,2.81-19.06,6.05-28.44,9.8-6.68,2.67,8.78,107.83,39.67,140.81s173.76,14.79,193.18-6.39c7.15-7.79,14-29.46,18.56-54.93C586,442.73,534.9,452.18,487.46,434Z"/><g class="cls-11"><path class="cls-9" d="M485.23,417.87a4.1,4.1,0,1,1-4.09-4.09A4.09,4.09,0,0,1,485.23,417.87Z"/><path class="cls-9" d="M540.4,370.8a4.09,4.09,0,1,1-4.09-4.09A4.1,4.1,0,0,1,540.4,370.8Z"/><path class="cls-9" d="M568.6,345.57a4.09,4.09,0,1,1-4.09-4.09A4.09,4.09,0,0,1,568.6,345.57Z"/><path class="cls-9" d="M623.76,346.34a4.09,4.09,0,1,1-4.09-4.09A4.09,4.09,0,0,1,623.76,346.34Z"/><path class="cls-9" d="M438.36,460.87a4.1,4.1,0,1,1-4.1-4.09A4.1,4.1,0,0,1,438.36,460.87Z"/><path class="cls-9" d="M513.63,392.32a4.09,4.09,0,1,1-4.09-4.1A4.09,4.09,0,0,1,513.63,392.32Z"/><path class="cls-9" d="M566.7,395.09a4.1,4.1,0,1,1-4.09-4.09A4.09,4.09,0,0,1,566.7,395.09Z"/><path class="cls-9" d="M614.76,397.4a4.09,4.09,0,1,1-4.09-4.09A4.09,4.09,0,0,1,614.76,397.4Z"/><circle class="cls-9" cx="589.28" cy="373.14" r="4.09"/><path class="cls-9" d="M505,442.41a4.09,4.09,0,1,1-4.09-4.09A4.09,4.09,0,0,1,505,442.41Z"/><path class="cls-9" d="M537,422.78a4.09,4.09,0,1,1-4.09-4.1A4.09,4.09,0,0,1,537,422.78Z"/><path class="cls-9" d="M590.91,429a4.09,4.09,0,1,1-4.09-4.09A4.09,4.09,0,0,1,590.91,429Z"/><path class="cls-9" d="M603.53,457.25a4.1,4.1,0,1,1-4.1-4.09A4.11,4.11,0,0,1,603.53,457.25Z"/><path class="cls-9" d="M564,442.41a4.09,4.09,0,1,1-4.09-4.09A4.09,4.09,0,0,1,564,442.41Z"/><path class="cls-9" d="M537,456.12a4.09,4.09,0,1,1-4.09-4.09A4.09,4.09,0,0,1,537,456.12Z"/><path class="cls-9" d="M455.24,353.75a4.09,4.09,0,1,1-4.09-4.09A4.09,4.09,0,0,1,455.24,353.75Z"/><path class="cls-9" d="M459.33,397.4a4.09,4.09,0,1,1-4.09-4.09A4.09,4.09,0,0,1,459.33,397.4Z"/><path class="cls-9" d="M420.08,422.78a4.09,4.09,0,1,1-4.09-4.1A4.09,4.09,0,0,1,420.08,422.78Z"/><path class="cls-9" d="M405.09,357.84a4.09,4.09,0,1,1-4.09-4.09A4.1,4.1,0,0,1,405.09,357.84Z"/><path class="cls-9" d="M473.19,460.87a4.09,4.09,0,1,1-4.09-4.09A4.09,4.09,0,0,1,473.19,460.87Z"/><circle class="cls-9" cx="441.44" cy="434.23" r="4.09"/><path class="cls-9" d="M485.23,374.9a4.1,4.1,0,1,1-4.09-4.1A4.09,4.09,0,0,1,485.23,374.9Z"/><path class="cls-9" d="M512.26,349.66a4.09,4.09,0,1,1-4.09-4.09A4.09,4.09,0,0,1,512.26,349.66Z"/><path class="cls-9" d="M427.19,386.28a4.09,4.09,0,1,1-4.09-4.09A4.09,4.09,0,0,1,427.19,386.28Z"/></g><path class="cls-6" d="M364.53,495.89c-7.41,2.64,30.36,139.42,31.85,142S648,635.3,651.69,634.06s26.86-148.28,24.14-152.52S477.67,455.53,364.53,495.89Z"/><polygon class="cls-12" points="376.19 563.2 374.17 555.26 404.21 504.08 450.76 537.85 487.95 497.26 532.77 534.34 573.62 495.13 610.93 536.57 650.92 502.34 670.74 528.78 669.57 536.82 650 510.71 610.41 544.6 573.32 503.4 533.06 542.05 488.5 505.19 451.54 545.52 405.97 512.47 376.19 563.2"/><polygon class="cls-12" points="385.41 599.01 382.1 586.44 411.24 536.79 455.17 568.65 490.08 530.55 532.16 565.35 570.62 528.43 605.64 567.34 643.24 535.16 665.28 564.57 663.23 577.2 641.76 548.55 604.81 580.18 570.13 541.67 532.62 577.69 490.96 543.23 456.42 580.93 414.05 550.21 385.41 599.01"/><polygon class="cls-12" points="391.77 634.71 387.8 632.38 420.9 575.98 460.99 605.05 493.03 570.09 531.65 602.03 566.83 568.25 598.98 603.96 633.43 574.48 657.99 607.24 656.83 613.38 632.7 581.17 598.57 610.38 566.59 574.87 531.88 608.2 493.46 576.43 461.61 611.2 422.3 582.69 391.77 634.71"/><path class="cls-13" d="M539.17,578.24c-45.16-19.19-73.59-58.81-99.08-98.88a4.41,4.41,0,0,1-.41-.81c-26.86,3.74-52.64,9.31-75.15,17.34-7.41,2.64,30.36,139.42,31.85,142S648,635.3,651.69,634.06c1.37-.45,5.37-20.63,9.74-46.17C620.13,593.84,578.06,594.77,539.17,578.24Z"/><path class="cls-3" d="M284.75,646c-9.7,3.07,39.54,184,44.24,188.79s402,2,409.38-4.57C748.3,821.38,778.74,645,776,639.12S455.24,592.08,284.75,646Z"/><path class="cls-14" d="M330.81,742.82c15.21-6.55,28.26-17.3,43.11-24.58,14.55-7.14,31.16-12.52,47.44-9,10.38,2.27,19.85,7.78,29.57,11.83a124.85,124.85,0,0,0,33.64,9.24c46.07,5.24,78.43-27.24,120.84-37,20.19-4.66,38.81-.63,57.79,6.85,21.72,8.57,42.09,15,65.77,14.5a127.89,127.89,0,0,0,37.52-6.5c1.8-10.36,3.45-20.29,4.85-29.21-25.8,8.92-52.1,14.28-78.61,6-21.59-6.7-39.56-23.78-62.77-24.64-23.47-.87-45.5,10.85-66.27,20.24-17.53,7.92-35.72,16.45-55.44,14.5-15.52-1.53-29.38-8.61-42.92-15.85-15.55-8.32-31.37-16.57-49.45-16.68-22.92-.15-37.31,16.27-54.4,28.93-22.35,16.57-46.9,18.52-69.19,10.16,3.14,13.87,6.86,29.07,10.71,44.1A45,45,0,0,0,330.81,742.82Z"/><path class="cls-14" d="M335.18,835.63c11.66-5.27,23.15-12.38,35.36-14.48,26.28-4.51,53.15,3.44,78,11.34,4.92,1.56,9.88,3.15,14.88,4.63,23.89,0,49.22-.21,74.48-.45,12.82-5.2,24.85-12.41,36.86-19.34,15.65-9,32.15-16.89,50.54-17.53,22-.76,43.4,8.78,64.2,14.55a148.63,148.63,0,0,0,53.56,5.1c3.14-10.1,7-26.23,10.84-44.81-2.46,1-5,1.94-7.52,2.8-33.24,11.3-70.43,10.47-103.77,0-10.19-3.2-19.84-8.13-30.4-10.09-11.68-2.17-23.21-.52-34.4,3.16-21.75,7.15-41.52,19.8-64,24.76-24.57,5.42-49.81,1.52-73-7.43-13.12-5.06-26.14-10.77-40.52-8.14-9.06,1.66-17.67,5.24-25.95,9.19-16.36,7.8-32.43,17.86-50.46,21.34-1,.19-2,.34-3,.49,4.11,13.82,7.19,23,8.2,24C329.31,835.09,331.47,835.38,335.18,835.63Z"/><path class="cls-15" d="M542.94,780.25C504.61,767.94,467.8,749.12,437.76,722c-28.89-26.06-49.32-60.07-67-94.44-31,4.26-60.17,10.22-86,18.38-9.7,3.07,39.54,184,44.24,188.79s402,2,409.38-4.57c2.75-2.44,7.06-17.72,11.81-38.65A412,412,0,0,1,542.94,780.25Z"/><path class="cls-16" d="M621.7,358.27q-.88,11.4-.76,22.82c0,4.44,7,4.46,6.92,0q-.14-11.43.75-22.82c.34-4.44-6.57-4.41-6.91,0Z"/><path class="cls-16" d="M619.93,395.24,619.09,409c-.27,4.44,6.64,4.42,6.91,0l.84-13.79c.28-4.45-6.64-4.43-6.91,0Z"/><g class="cls-17"><path class="cls-18" d="M622.44,413.27a1.5,1.5,0,0,0,0-3,1.5,1.5,0,0,0,0,3Z"/></g><path class="cls-19" d="M656.53,492.93q-2.49,21.07-5,42.15c-.52,4.41,6.4,4.37,6.91,0q2.47-21.08,5-42.15c.52-4.41-6.4-4.37-6.91,0Z"/><path class="cls-19" d="M649.32,546.14a158.06,158.06,0,0,0-4.19,17.41c-.79,4.35,5.87,6.22,6.66,1.84A157,157,0,0,1,656,548c1.28-4.27-5.39-6.1-6.67-1.84Z"/><path class="cls-20" d="M630.81,642.07l81.63,5.57c4.44.3,4.42-6.61,0-6.92l-81.63-5.56c-4.44-.3-4.42,6.61,0,6.91Z"/><path class="cls-20" d="M730.05,650.06l16.15,2.18c4.35.59,6.23-6.07,1.84-6.67l-16.15-2.18c-4.35-.59-6.23,6.07-1.84,6.67Z"/></g></g></svg>