<svg xmlns="http://www.w3.org/2000/svg" xmlns:xlink="http://www.w3.org/1999/xlink" viewBox="0 0 1080 1080"><defs><style>.cls-1{fill:none;}.cls-2{clip-path:url(#clip-path);}.cls-3{fill:#fff;}.cls-4{fill:#ee2f4d;}.cls-5{fill:#d8d8da;}.cls-6{fill:#281410;}.cls-7{fill:#d62a3c;}</style><clipPath id="clip-path"><rect class="cls-1" x="369.02" y="369.02" width="341.95" height="341.96"/></clipPath></defs><title>Logo Kookiclub</title><g id="Layer_2" data-name="Layer 2"><g id="Group_618" data-name="Group 618"><g class="cls-2"><g id="Group_195" data-name="Group 195"><g id="Group_177" data-name="Group 177"><path id="Path_174" data-name="Path 174" class="cls-3" d="M540,708.94A168.95,168.95,0,1,0,371.05,540,169.27,169.27,0,0,0,540,708.94"/></g><g id="Group_178" data-name="Group 178"><path id="Path_175" data-name="Path 175" class="cls-4" d="M540,709v2A171,171,0,1,0,369,540,171.3,171.3,0,0,0,540,711v-4.07a167.25,167.25,0,1,1,117.91-49,166.38,166.38,0,0,1-117.91,49Z"/></g><g id="Group_179" data-name="Group 179"><path id="Path_176" data-name="Path 176" class="cls-5" d="M502.12,681.52c5.09,7.19,34.55,6.5,44.48,6.58,8,0,16.85-.14,24.52-.85,6.74-.62,16.89-.34,21.83-5.7-1.94-2.39.23-.83-3.3-2.6a45.64,45.64,0,0,0-5.13-1.5c-15.31-3.2-75.57-5.6-82.4,4.07"/></g><g id="Group_180" data-name="Group 180"><path id="Path_177" data-name="Path 177" class="cls-6" d="M492.72,508.34c3.44,11,17.13,20.24,27.43,59.09,14.85,56-16.64,53-23,35.4-17.37,3.14.73,7.62-19.3-8.9l-8.1,5.13a18.18,18.18,0,0,0,1.57,6.64c-17.86,1.74-17,11.63-12.92,26.49l7.63-.77c2.42-8.32-1-14.52,10.19-14.52-1.13,4.61-1.13.47-2.77,6.74,16.89,10.39,44.3,28.62,61.08-4.35,4.08-8,5-17.42,8-23.85,3.86,6.34,13.4,4.82,21.91,11.3,5,3.82,16.83,20.23,18.91,20.34,3.11.16,4.08-2,7.19,2,2.92,3.78,4.82,6.11,7,9.1l9.23-5.68-2-5.8c13.51-1.55,20.35-6.6,16.81-20.58-1.73-6.85-3.21-5.16-9.52-4.72-2.11,7.41-.41,14.55-11.09,13.43l5-4.86c-5.59-15.69-16.29-19-29.31-24.46,7.22-13.12,10-15.73,8.63-36-8.5-2.72-18.38.64-26.57-2.81a223,223,0,0,0,26.2-1.91c15.1-2.16,15.73,1.25,16.78-13.81,19-2.25,19.36-20.23,21.08-22.88,4.58-7.09,26.06-7.68,26-17.95-4.82.93-22.48,10.68-30,13.93a376.14,376.14,0,0,1-48.61,17.64c-12.31,2.78-10.06-8.2-37.28-1.51a31.74,31.74,0,0,1-9,1.2,10.85,10.85,0,0,1-4.34-.59c-4.57-1.64-2.55-1.21-4-2.93,10-4.26,2.06,2.75,13.29.14L525.57,515l-.79-.56c-5.27-3.71-1.43-2.59-7.36-2.2-6.78.43-9.09,1.52-8.19-8.41,5,2.58,4.67,4.64,12.73,6.69a46.48,46.48,0,0,0,20.59.67c.83-8.06,4.05-9.12,1.35-13.06-5.25-4.57-4.32-.79-9.71-3.88-3-1.74-3.13-3.88-6.47-7-13.64,2-26.19,15.57-35,21.16"/></g><g id="Group_181" data-name="Group 181"><path id="Path_178" data-name="Path 178" class="cls-4" d="M484.59,423c-18-9.22-31.23-1.91-28.8,20.51-19.55,3.54-21.91,34.13,8.58,31.61A205.18,205.18,0,0,1,478,491a174.28,174.28,0,0,0,13.29,16.17,39.2,39.2,0,0,0,9.91-10.63l-12.51-22.42a177.7,177.7,0,0,0,16.08,20,13.08,13.08,0,0,0,2.88-1.54,23.82,23.82,0,0,0,2.19-1.53q-2.89-6.94-6.48-13.56c4,3.09,5,6.75,9.5,11l12.28-3.77a161.39,161.39,0,0,0-9.11-18.23,148,148,0,0,1-7.66-21.22c.17-.27,15.67-16,2-27.12-11.09-9-19.7-1.69-25.78,4.75"/></g><g id="Group_182" data-name="Group 182"><path id="Path_179" data-name="Path 179" class="cls-6" d="M476.73,550c-2.5,6.74-6.91,11.51-2.44,20.28A16.3,16.3,0,0,0,491.24,579a16.76,16.76,0,0,0,13.65-12.58c1.95-9.51-4-14-6.1-22.16,4.16-2.25,3.26-.82,4.78-4.55-4.93-9.68-2.07-5.29-10.56-4.31a39.05,39.05,0,0,0-10.11-15.52,17.52,17.52,0,0,0-20.43,1.74c-11,10.56-4.5,29,14.27,28.32"/></g><g id="Group_183" data-name="Group 183"><path id="Path_180" data-name="Path 180" class="cls-6" d="M484.52,566.73c7.65,3.2,11.28-.63,8.49-8.43-7.42-2.42-11.24.66-8.49,8.43"/></g><g id="Group_184" data-name="Group 184"><path id="Path_181" data-name="Path 181" class="cls-6" d="M468.86,536.88l4.77,2.81c5.15-2.24,6.51-5.36,3.76-10.27-7.4-2.24-9.66.27-8.53,7.46"/></g><g id="Group_185" data-name="Group 185"><path id="Path_182" data-name="Path 182" class="cls-3" d="M474.8,528.92a6.06,6.06,0,0,1,6.07,6.06h0a6.06,6.06,0,0,1-6.07,6.06h0a6.07,6.07,0,1,1,0-12.13"/></g><g id="Group_186" data-name="Group 186"><path id="Path_183" data-name="Path 183" class="cls-3" d="M489.63,556.55a6.07,6.07,0,0,1,0,12.14h0a6.08,6.08,0,0,1-6.1-6v0a6.07,6.07,0,0,1,6.08-6.07h0"/></g><g id="Group_187" data-name="Group 187"><path id="Path_184" data-name="Path 184" class="cls-6" d="M568.18,467.71A174.65,174.65,0,0,0,578,490.19c1.2,2.08,7.06,13.9,8.68,13.86,7.41-.17,51.21-16,47.34-26-2.48-6.44-4-12.24-6.93-19.41-.83-2-5-15.53-7.65-14.4-9.71,4-36.18,13.79-42.5,18.92Z"/></g><g id="Group_188" data-name="Group 188"><path id="Path_185" data-name="Path 185" class="cls-6" d="M568.18,467.72l-.65.27a174.33,174.33,0,0,0,9.88,22.54c.56,1,2.34,4.5,4.17,7.71.92,1.62,1.84,3.17,2.66,4.34a11.56,11.56,0,0,0,1.14,1.47,2,2,0,0,0,1.29.73h0a49.56,49.56,0,0,0,10.62-2.56,154.41,154.41,0,0,0,24.13-10.07,53.12,53.12,0,0,0,9.55-6.3,9.62,9.62,0,0,0,4-6.55,4.18,4.18,0,0,0-.28-1.56h0c-2.46-6.39-4-12.19-6.94-19.43-.37-.89-1.56-4.56-3-8a35.33,35.33,0,0,0-2.25-4.63,8.19,8.19,0,0,0-1.22-1.59,2.27,2.27,0,0,0-1.52-.73l-.56.11h0c-4.87,2-13.92,5.45-22.56,9.06a107.66,107.66,0,0,0-20.15,10l.45.56-.34-.62-9.33,4.93.24.56.65-.27.34.63,8.84-4.66,0,0a107.61,107.61,0,0,1,19.77-9.79c8.64-3.58,17.67-7,22.54-9h0l.56.35a24.48,24.48,0,0,1,3.67,7c1.16,3,2.09,5.8,2.46,6.71,2.93,7.12,4.43,12.92,6.92,19.39h0l.19,1c.06,2-2.24,4.8-6.14,7.53a110.71,110.71,0,0,1-22.81,11.32,81.23,81.23,0,0,1-17.94,5.21v.24l.08-.22h-.06v.23l.08-.22a7.06,7.06,0,0,1-1.61-1.91c-2.34-3.46-5.65-10.07-6.52-11.62a173.32,173.32,0,0,1-9.81-22.4l-.65.26.34.62Z"/></g><g id="Group_189" data-name="Group 189"><path id="Path_186" data-name="Path 186" class="cls-3" d="M568.2,467.73c1.15,2.8,2.17,5.48,3.2,8.11l.49.75c-.32,2.15,8,6.12,8.4-3.84.27-7.76,8.13,4.6,11.07-2.07,3.84-8.81-1.6-6.22,5.95-2,3.65,2.06,6.92-3.16,6.39-6.1-.67-3.81,8.42,11.21,10.41-4.45.85-6.74-2.61-1.87,5.45-.56a26.94,26.94,0,0,0,6-1.18l.67-.21c-1.58-4.44-4.69-12.92-6.79-12.05-9.7,4-36.18,13.8-42.5,18.91Z"/></g><g id="Group_190" data-name="Group 190"><path id="Path_187" data-name="Path 187" class="cls-6" d="M568.2,467.75l-1.22.5c1.12,2.81,2.16,5.46,3.2,8.09l.05.13.56.83,1.13-.73-1.32-.2,0,.37a3.54,3.54,0,0,0,1.82,2.73,6.4,6.4,0,0,0,3.47,1,5,5,0,0,0,3.93-1.84,9.6,9.6,0,0,0,1.82-5.88,3.33,3.33,0,0,1,.26-1.43h0l-.16-.16.08.21.08-.05-.15-.16.08.21h0a2.87,2.87,0,0,1,.94.26c.71.32,1.64.88,2.64,1.38a7.69,7.69,0,0,0,3.37,1,3.81,3.81,0,0,0,2.25-.71,5,5,0,0,0,1.61-2.14h0a16,16,0,0,0,1.68-6.18v-.22H593l1.18.22v-.22H593l1.18.22-1.27-.24,1.12.6.12-.36-1.27-.24,1.12.6-1.16-.61.85,1,.31-.39-1.16-.61.85,1-.85-1v1.31l.85-.31-.85-1h0l-.89,1a1.23,1.23,0,0,0,.89.34v-1.31l-.89,1,.87-.94-1.13.63.25.31.86-.94-1.12.63.85-.48-.88.43,0,.05.85-.48-.88.43.29.56a12.25,12.25,0,0,0,4.6,3.94,4.77,4.77,0,0,0,2.33.64,5.71,5.71,0,0,0,4.44-2.55A8.2,8.2,0,0,0,605,463.3l-.07-.9h0v-.1h-.86l.76.48.15-.48h-.91l.76.48-1-.65v1.16l1-.56-1-.6v.27l-.34.85.34.06v-.88l-.34.82.08-.2-.1.2h0l.08-.2-.08.2a9.24,9.24,0,0,1,.79.61,23.3,23.3,0,0,0,2.38,1.81,6.35,6.35,0,0,0,3.33,1.12,4.16,4.16,0,0,0,3.56-2.14,15.43,15.43,0,0,0,1.87-6.32h0a16.78,16.78,0,0,0,.15-2.25,7.15,7.15,0,0,0-.09-1.31l-.11-.44-.12-.26-.16-.24a1.27,1.27,0,0,0-1-.46,1.3,1.3,0,0,0-1,.46l-.28.56,0,.33.06.41a4,4,0,0,0,1.62,2,11.33,11.33,0,0,0,4.92,1.81l.41,0a20.25,20.25,0,0,0,3.29-.49,22.62,22.62,0,0,0,3-.79l-.52-1.25.39,1.26.67-.21,1.31-.41-.46-1.29c-.76-2.13-1.86-5.18-3.07-7.76a20.72,20.72,0,0,0-1.91-3.37,5.84,5.84,0,0,0-1.12-1.21,2.72,2.72,0,0,0-1.63-.64l-.82.17h0c-4.82,2-13.88,5.43-22.53,9-4.32,1.8-8.54,3.64-12.11,5.36a46.94,46.94,0,0,0-8.16,4.7l.83,1-.61-1.17-9.83,5.19.45,1.12,1.22-.49.61,1.16,8.89-4.69.09-.08a45.33,45.33,0,0,1,7.69-4.39C596,454.67,612.66,448.4,620,445.4h0l-.19-.48v.52l.19,0-.19-.48v.21l-.13.29h.13v-.3l-.13.28a3.86,3.86,0,0,1,1,1.2A58.7,58.7,0,0,1,625,456.68l1.24-.44-.39-1.26-.67.22h-.1a22.81,22.81,0,0,1-2.59.65,19.43,19.43,0,0,1-2.75.43h0l0,.48.08-.48h-.08l0,.48.08-.48a8.43,8.43,0,0,1-3.93-1.43l-.49-.5,0-.07-.5.21.52-.15v-.06l-.5.21.52-.15-1.09.32h1.12l0-.32-1.09.32h-.17l1.21.45.08-.45h-1.29l1.21.45-1.23-.46,1,.85.23-.39-1.23-.46,1,.85-1-.85V456a1.33,1.33,0,0,0,1-.46l-1-.85h0l-1,.85a1.26,1.26,0,0,0,1,.46v-1.31l-1,.85.9-.77-1.09.47.19.3.9-.77-1.09.47.63-.27-.65.22v.06l.63-.27-.65.21v0a4.34,4.34,0,0,1,.06.88,13.39,13.39,0,0,1-.14,1.9h0a13.25,13.25,0,0,1-1.46,5.22c-.57.84-.9.9-1.36.93a5.71,5.71,0,0,1-2.91-1.43c-.53-.41-1-.83-1.46-1.18l-.67-.5a2,2,0,0,0-1.07-.35,1.51,1.51,0,0,0-1.25.68,1.68,1.68,0,0,0-.25.92l.06.57h0l0,.44a5.71,5.71,0,0,1-1.12,3.1,3.14,3.14,0,0,1-2.32,1.48,2.1,2.1,0,0,1-1-.3,11.85,11.85,0,0,1-3.28-2.47l-.44-.62-.08-.16,0-.09-.1-.16-.19-.24a1.28,1.28,0,0,0-.9-.34l-.85.31-.4.56-.07.45v.2a13.66,13.66,0,0,1-1.47,5.13h0a2.55,2.55,0,0,1-.75,1.08l-.68.2a7.53,7.53,0,0,1-3.06-1.17c-.6-.32-1.21-.67-1.83-1a5.14,5.14,0,0,0-2-.57,2.52,2.52,0,0,0-2.17,1.21,5.6,5.6,0,0,0-.67,2.78,7.15,7.15,0,0,1-1.2,4.3,2.37,2.37,0,0,1-1.92.89,3.86,3.86,0,0,1-2-.62l-.56-.51-.08-.12-.21.1h.22v-.09l-.22.09h-.3l.51.09v-.09h-.51l.51.09.09-.53-.78-1.19-1.12.73,1.24-.48c-1-2.62-2-5.31-3.22-8.13l-1.2.52.61,1.16Z"/></g><g id="Group_191" data-name="Group 191"><path id="Path_188" data-name="Path 188" class="cls-3" d="M577.75,495.61c9-7.27,17.88-8.69,29.3-12A128.72,128.72,0,0,0,625,479.73a15.05,15.05,0,0,0,6.32-4.21,23.4,23.4,0,0,1,4-4l-.89-1.32a24.65,24.65,0,0,0-4.32,4.28,13.29,13.29,0,0,1-5.68,3.79,132,132,0,0,1-17.81,3.87c-11.28,3.25-20.52,4.71-29.86,12.28Z"/></g><g id="Group_192" data-name="Group 192"><path id="Path_189" data-name="Path 189" class="cls-7" d="M589.48,443.89a5.73,5.73,0,1,1-4.58,7.87,6.55,6.55,0,0,1,4.58-7.87"/></g><g id="Group_193" data-name="Group 193"><path id="Path_190" data-name="Path 190" class="cls-6" d="M589.48,443.86l.26.67a8.47,8.47,0,0,1,3.14-.64,4.89,4.89,0,0,1,4.75,2.64h0a3.8,3.8,0,0,1,.27,1.41,6.63,6.63,0,0,1-4.49,5.57,8.3,8.3,0,0,1-3.14.63,4.85,4.85,0,0,1-4.75-2.64h0a3.56,3.56,0,0,1-.27-1.4,6.61,6.61,0,0,1,4.49-5.57l-.26-.67-.27-.62a8,8,0,0,0-5.34,6.86,5.11,5.11,0,0,0,.38,1.93h0a6.25,6.25,0,0,0,6,3.51,9.67,9.67,0,0,0,3.67-.75,7.93,7.93,0,0,0,5.33-6.85,4.78,4.78,0,0,0-.36-1.94h0a6.25,6.25,0,0,0-6-3.51,9.82,9.82,0,0,0-3.67.75Z"/></g><g id="Group_194" data-name="Group 194"><path id="Path_191" data-name="Path 191" class="cls-6" d="M577.87,435c.87,1.61,3,2.55,5,3.93a12.36,12.36,0,0,1,5.17,5.3l1.29-.53a13.6,13.6,0,0,0-5.71-5.94,15,15,0,0,1-4.56-3.37Z"/></g></g></g></g></g></svg>