<svg xmlns="http://www.w3.org/2000/svg" viewBox="0 0 1080 1080"><defs><style>.cls-1{fill:#fbaf17;}.cls-2{fill:#f26e23;}.cls-3{fill:#f78e20;}.cls-4{fill:#603913;}.cls-5{fill:#8b5e3c;}.cls-6{fill:#72241a;}.cls-7{fill:#4c2216;}.cls-8{fill:#f9d1bb;}.cls-9{fill:#ffebc4;}</style></defs><title>Mouses</title><g id="Layer_2" data-name="Layer 2"><circle class="cls-1" cx="540" cy="531.06" r="207.03"/></g><g id="Layer_4" data-name="Layer 4"><polygon class="cls-2" points="484.62 579.85 640.31 579.85 701.25 675.33 701.25 751.25 548.9 751.25 484.62 579.85"/><polygon class="cls-3" points="396.54 675.33 548.9 568.2 548.9 751.25 396.54 751.25 396.54 675.33"/><path class="cls-4" d="M550,493.79,442.88,589.91,550,686a45.7,45.7,0,0,1,59.84,1,45.7,45.7,0,0,1,60.94,0,45.52,45.52,0,0,1,30.47-11.64V493.79Z"/><path class="cls-5" d="M396.54,493.79V675.33A45.6,45.6,0,0,1,427,687,45.69,45.69,0,0,1,488,687a45.7,45.7,0,0,1,60.94,0l1.11-1V493.79Z"/><rect class="cls-6" x="439.39" y="536.64" width="21.42" height="21.42"/><rect class="cls-7" x="615.55" y="536.64" width="21.42" height="21.42"/><rect class="cls-7" x="636.98" y="579.49" width="21.42" height="21.42"/><path class="cls-8" d="M550,714.82l-32.14,21.43L550,757.67H690a42.9,42.9,0,0,0,42.85-42.85Z"/><path class="cls-9" d="M367.18,714.82A42.9,42.9,0,0,0,410,757.67H550V714.82H367.18"/></g></svg>