<svg xmlns="http://www.w3.org/2000/svg" viewBox="0 0 1080 1080"><defs><style>.cls-1{fill:#fbaf17;}.cls-2{fill:#fff;}.cls-3{fill:#603913;}.cls-4{fill:#ccc;}.cls-5{fill:#cf2128;}</style></defs><title>Notela</title><g id="Layer_2" data-name="Layer 2"><circle class="cls-1" cx="540" cy="531.06" r="207.03"/></g><g id="Layer_4" data-name="Layer 4"><path class="cls-2" d="M397.32,700.27H681V530H397.32ZM506.74,573.84H659.65v83.33H506.74Zm-90.89,0H486.6v83.33H415.85Z"/><path class="cls-3" d="M423.12,749.93A15,15,0,0,0,436.43,758h205.5a15,15,0,0,0,13.31-8.08L681,700.27H397.32Z"/><path class="cls-3" d="M641,447.67H437.32c-9.35,20.2-44.52,57.15-40,82.07H681C685.91,504.35,661.2,479.63,641,447.67Z"/><path class="cls-2" d="M641.36,447.67a12.12,12.12,0,0,0,12.12-12.12V395.16A12.12,12.12,0,0,0,641.36,383H440.56a12.12,12.12,0,0,0-12.11,12.12v40.39a12.11,12.11,0,0,0,12.11,12.12h200.8ZM466,436.74H453.16V395.4H466Zm31.84,0H485V395.4h12.83Zm31.84,0H516.84V395.4h12.83Zm31.84,0H548.68V395.4h12.83Zm31.85,0H580.52V395.4h12.84Zm31.84,0H612.37V395.4H625.2Z"/><rect class="cls-4" x="453.16" y="395.4" width="12.83" height="41.35"/><rect class="cls-4" x="485" y="395.4" width="12.83" height="41.35"/><rect class="cls-4" x="516.84" y="395.4" width="12.83" height="41.35"/><rect class="cls-4" x="548.68" y="395.4" width="12.83" height="41.35"/><rect class="cls-4" x="580.52" y="395.4" width="12.83" height="41.35"/><rect class="cls-4" x="612.37" y="395.4" width="12.83" height="41.35"/><rect class="cls-5" x="506.74" y="573.84" width="152.91" height="83.33"/><rect x="415.85" y="573.84" width="70.75" height="83.33"/></g></svg>