<svg xmlns="http://www.w3.org/2000/svg" viewBox="0 0 1080 1080"><defs><style>.cls-1{fill:#fbaf17;}.cls-2{fill:#ffce04;}.cls-3{fill:#ef3955;}.cls-4{fill:#bdbec0;}.cls-5{fill:#be1e2d;}.cls-6{fill:#f26347;}.cls-7{fill:#e4593c;}.cls-8{fill:#e48a25;}</style></defs><title>one laye cake</title><g id="Layer_2" data-name="Layer 2"><circle class="cls-1" cx="540" cy="531.06" r="207.03"/></g><g id="Layer_4" data-name="Layer 4"><path class="cls-2" d="M440.47,620.14c.3-.2.65-.35,1-.56-.33.22-.68.37-1,.56Zm0,0"/><path class="cls-2" d="M533.7,618.57c.41-.17.87-.27,1.3-.41-.43.14-.89.24-1.3.41Zm0,0"/><path class="cls-2" d="M537.05,617.62c.48-.08,1-.11,1.49-.15-.5,0-1,.07-1.49.15Zm0,0"/><path class="cls-2" d="M634.3,617.89c.33.08.65.2,1,.3a6.78,6.78,0,0,0-1-.3Zm0,0"/><path class="cls-2" d="M620.88,620.14c.3-.2.65-.35,1-.56-.33.22-.68.37-1,.56Zm0,0"/><path class="cls-2" d="M443.49,618.57c.42-.17.87-.27,1.3-.41-.43.14-.88.24-1.3.41Zm0,0"/><path class="cls-2" d="M631.45,617.37h-.57a11.72,11.72,0,0,1,1.6.16c-.36,0-.68-.14-1-.16Zm0,0"/><path class="cls-2" d="M627.25,617.62c.49-.08,1-.11,1.5-.15-.51,0-1,.07-1.5.15Zm0,0"/><path class="cls-2" d="M623.9,618.57c.42-.17.87-.27,1.3-.41-.43.14-.88.24-1.3.41Zm0,0"/><path class="cls-2" d="M544.09,617.89c.34.08.65.2,1,.3a6.53,6.53,0,0,0-1-.3Zm0,0"/><path class="cls-2" d="M446.84,617.62c.49-.08,1-.11,1.5-.15-.51,0-1,.07-1.5.15Zm0,0"/><path class="cls-2" d="M530.67,620.14c.31-.2.66-.35,1-.56-.33.22-.68.37-1,.56Zm0,0"/><path class="cls-2" d="M451,617.37h-.57a11.72,11.72,0,0,1,1.6.16c-.36,0-.68-.14-1-.16Zm0,0"/><path class="cls-2" d="M453.89,617.89c.33.08.65.2,1,.3a6.78,6.78,0,0,0-1-.3Zm0,0"/><path class="cls-2" d="M541.24,617.37h-.56a11.88,11.88,0,0,1,1.6.16c-.36,0-.68-.14-1-.16Zm0,0"/><path class="cls-2" d="M655.35,676.74a28.29,28.29,0,0,1-8.23-20v-21.6a17.91,17.91,0,0,0-11.84-17c-.33-.1-.64-.22-1-.3-.6-.14-1.21-.25-1.82-.33s-1.06-.14-1.6-.16a16.86,16.86,0,0,0-2.13.08c-.5,0-1,.07-1.49.15a20,20,0,0,0-2,.56c-.43.15-.89.25-1.3.42a15,15,0,0,0-2,1,8.09,8.09,0,0,0-1,.56,17.3,17.3,0,0,0-2.62,2.13,16.91,16.91,0,0,0-5,11.91v11.27a28.19,28.19,0,0,1-56.38,0V635.19a17.91,17.91,0,0,0-11.84-17c-.32-.1-.64-.22-1-.3a18.42,18.42,0,0,0-1.83-.33c-.53-.07-1.06-.14-1.6-.16a16.63,16.63,0,0,0-2.12.08c-.51,0-1,.07-1.5.15-.69.15-1.37.34-2,.56-.43.15-.88.25-1.3.42a16.31,16.31,0,0,0-2,1,7.3,7.3,0,0,0-1,.56,16.79,16.79,0,0,0-7.59,14v33.82a28.19,28.19,0,0,1-56.38,0V635.19a17.91,17.91,0,0,0-11.84-17c-.33-.1-.64-.22-1-.3-.6-.14-1.21-.25-1.82-.33s-1.06-.14-1.6-.16a16.86,16.86,0,0,0-2.13.08c-.5,0-1,.07-1.49.15a20,20,0,0,0-2.05.56c-.43.15-.88.25-1.3.42a15,15,0,0,0-2,1,8.09,8.09,0,0,0-1,.56,17.3,17.3,0,0,0-2.62,2.13,16.91,16.91,0,0,0-5,11.91v22.55A28.12,28.12,0,0,1,404.69,685a28.74,28.74,0,0,1-11.27-2.32v70H686.58v-70A28.74,28.74,0,0,1,675.31,685a28.28,28.28,0,0,1-20-8.24Zm0,0"/><path class="cls-3" d="M680.94,583.5H399.06a22.55,22.55,0,0,0-22.56,22.55v50.74a28.26,28.26,0,0,0,8.24,20,28.19,28.19,0,0,0,48.14-20V634.24a16.79,16.79,0,0,1,7.59-14.09c.3-.2.65-.35,1-.56a16.39,16.39,0,0,1,2-1.05c.42-.17.87-.27,1.3-.41.68-.22,1.36-.41,2-.56a14.65,14.65,0,0,1,1.5-.15,14.13,14.13,0,0,1,1.46-.1c.22,0,.44.06.66.07a3.47,3.47,0,0,1,.56,0,8.87,8.87,0,0,1,1,.18c.61.08,1.23.19,1.83.33.33.09.65.2,1,.3a16.83,16.83,0,0,1,11.86,16v33.82a28.19,28.19,0,0,0,56.38,0V634.24a16.88,16.88,0,0,1,5-12,17.3,17.3,0,0,1,2.62-2.13c.31-.2.66-.35,1-.56a15.1,15.1,0,0,1,2-1.05c.41-.17.87-.27,1.3-.41a20,20,0,0,1,2-.56,14.74,14.74,0,0,1,1.49-.15,14.32,14.32,0,0,1,1.46-.1c.23,0,.44.06.67.07a3.48,3.48,0,0,1,.56,0,9.09,9.09,0,0,1,1,.18,18.42,18.42,0,0,1,1.83.33c.34.09.66.2,1,.3a16.82,16.82,0,0,1,11.85,16v11.27a28.19,28.19,0,0,0,56.38,0V634.24a16.79,16.79,0,0,1,7.59-14.09c.3-.2.65-.35,1-.56a16.39,16.39,0,0,1,2-1.05c.42-.17.87-.27,1.3-.41a20.69,20.69,0,0,1,2-.56,14.65,14.65,0,0,1,1.5-.15,14.13,14.13,0,0,1,1.45-.1c.23,0,.44.06.67.07a3.47,3.47,0,0,1,.56,0,8.87,8.87,0,0,1,1,.18q.91.12,1.83.33c.33.09.65.2,1,.3a16.83,16.83,0,0,1,11.86,16v22.55A28.12,28.12,0,0,0,675.31,685a28.74,28.74,0,0,0,11.27-2.32,28.35,28.35,0,0,0,16.92-25.87V606.05a22.55,22.55,0,0,0-22.56-22.55Zm0,0"/><path class="cls-4" d="M703.5,758.27h-327a5.64,5.64,0,0,1,0-11.28h327a5.64,5.64,0,0,1,0,11.28Zm0,0"/><path class="cls-2" d="M618.25,622.28a16.9,16.9,0,0,1,2.63-2.13,16.9,16.9,0,0,0-2.63,2.13Zm0,0"/><path class="cls-2" d="M466.71,635.19v-1a16.82,16.82,0,0,0-11.84-16.06,17.91,17.91,0,0,1,11.84,17Zm0,0"/><path class="cls-2" d="M542.25,617.55a18.42,18.42,0,0,1,1.83.33,18.42,18.42,0,0,0-1.83-.33Zm0,0"/><path class="cls-2" d="M556.91,635.19v-1a16.81,16.81,0,0,0-11.84-16.06,17.91,17.91,0,0,1,11.84,17Zm0,0"/><path class="cls-2" d="M647.12,635.19v-1a16.84,16.84,0,0,0-11.84-16.06,17.91,17.91,0,0,1,11.84,17Zm0,0"/><path class="cls-2" d="M535,618.16a17.71,17.71,0,0,1,2-.56,17.71,17.71,0,0,0-2,.56Zm0,0"/><path class="cls-2" d="M449.8,617.32c-.51,0-1,.11-1.46.15a16.63,16.63,0,0,1,2.12-.08c-.22,0-.44-.07-.66-.07Zm0,0"/><path class="cls-2" d="M452.05,617.55c.61.08,1.23.19,1.83.33-.6-.14-1.22-.25-1.83-.33Zm0,0"/><path class="cls-2" d="M630.2,617.32c-.5,0-1,.11-1.45.15a16.63,16.63,0,0,1,2.12-.08c-.23,0-.44-.07-.67-.07Zm0,0"/><path class="cls-2" d="M441.45,619.62a16.39,16.39,0,0,1,2-1,16.39,16.39,0,0,0-2,1Zm0,0"/><path class="cls-2" d="M621.86,619.62a16.39,16.39,0,0,1,2-1,16.39,16.39,0,0,0-2,1Zm0,0"/><path class="cls-2" d="M625.2,618.16a18.27,18.27,0,0,1,2-.56,18.27,18.27,0,0,0-2,.56Zm0,0"/><path class="cls-2" d="M437.84,622.28a16.9,16.9,0,0,1,2.63-2.13,16.9,16.9,0,0,0-2.63,2.13Zm0,0"/><path class="cls-2" d="M444.79,618.16a18.88,18.88,0,0,1,2-.56,18.88,18.88,0,0,0-2,.56Zm0,0"/><path class="cls-2" d="M540,617.32c-.5,0-1,.11-1.46.15a16.86,16.86,0,0,1,2.13-.08c-.23,0-.44-.07-.67-.07Zm0,0"/><path class="cls-2" d="M528.05,622.28a17.3,17.3,0,0,1,2.62-2.13,17.3,17.3,0,0,0-2.62,2.13Zm0,0"/><path class="cls-2" d="M632.46,617.55q.91.12,1.83.33-.91-.21-1.83-.33Zm0,0"/><path class="cls-2" d="M531.66,619.62a15.1,15.1,0,0,1,2-1,15.1,15.1,0,0,0-2,1Zm0,0"/><rect class="cls-5" x="523.09" y="510.2" width="33.83" height="73.29"/><path class="cls-6" d="M517.45,465.1a22.55,22.55,0,0,0,45.1,0C562.55,452.65,540,420,540,420s-22.55,32.65-22.55,45.1Zm0,0"/><rect class="cls-5" x="618.93" y="521.48" width="33.83" height="62.02"/><path class="cls-6" d="M613.29,476.38a22.55,22.55,0,1,0,45.1,0c0-12.46-22.55-45.1-22.55-45.1s-22.55,32.64-22.55,45.1Zm0,0"/><rect class="cls-5" x="427.24" y="521.48" width="33.83" height="62.02"/><path class="cls-6" d="M466.71,476.38A22.59,22.59,0,0,1,447,498.76h0a24.25,24.25,0,0,1-2.82.17,22.55,22.55,0,0,1-22.55-22.55c0-12.46,22.55-45.1,22.55-45.1s1.13,1.63,2.82,4.22c6.09,9.25,19.73,31.18,19.73,40.88Zm0,0"/><path class="cls-7" d="M447,498.76a24.25,24.25,0,0,1-2.82.17,22.55,22.55,0,0,1-22.55-22.55c0-12.46,22.55-45.1,22.55-45.1s1.13,1.63,2.82,4.22c-6.09,9.25-19.74,31.18-19.74,40.88A22.6,22.6,0,0,0,447,498.76Zm0,0"/><path class="cls-7" d="M542.82,487.49a22.22,22.22,0,0,1-2.82.16,22.55,22.55,0,0,1-22.55-22.55C517.45,452.64,540,420,540,420s1.13,1.63,2.82,4.23c-6.09,9.24-19.73,31.17-19.73,40.87a22.6,22.6,0,0,0,19.73,22.39Zm0,0"/><path class="cls-7" d="M638.66,498.76a24.12,24.12,0,0,1-2.82.17,22.56,22.56,0,0,1-22.55-22.55c0-12.46,22.55-45.1,22.55-45.1s1.13,1.63,2.82,4.22c-6.09,9.25-19.73,31.18-19.73,40.88a22.59,22.59,0,0,0,19.73,22.38Zm0,0"/><rect class="cls-8" x="427.24" y="521.48" width="33.83" height="11.28"/><rect class="cls-8" x="523.09" y="510.2" width="33.83" height="11.28"/><rect class="cls-8" x="618.93" y="521.48" width="33.83" height="11.28"/></g></svg>