<svg xmlns="http://www.w3.org/2000/svg" viewBox="0 0 1080 1080"><defs><style>.cls-1{fill:#fbaf17;}.cls-2{fill:#669e4f;}.cls-3{fill:#78b75a;}.cls-4{fill:#d8e25a;}.cls-5{fill:#f6dd34;}.cls-6{fill:#e49954;}</style></defs><title>Pineapple</title><g id="Layer_2" data-name="Layer 2"><circle class="cls-1" cx="540" cy="531.06" r="207.03"/></g><g id="Layer_4" data-name="Layer 4"><path class="cls-2" d="M558,517.82V485.39a222.06,222.06,0,0,0-18-87.45l0-.12,0,.12a222,222,0,0,0-18,87.45v32.43"/><path class="cls-3" d="M540,517.82l0,0a180,180,0,0,0-70.3-75l-25.68-15,23.7,33.86a275.62,275.62,0,0,1,30.15,55.77l.15,6.37"/><path class="cls-3" d="M540,517.82l0,0a180,180,0,0,1,70.3-75l25.68-15-23.7,33.86a275.62,275.62,0,0,0-30.15,55.77l-.15,6.37"/><path class="cls-4" d="M576,517.82H504a60,60,0,0,0-60,60v120a60,60,0,0,0,60,60h72a60,60,0,0,0,60-60v-120a60,60,0,0,0-60-60Zm0,0"/><path class="cls-5" d="M504,517.82a60,60,0,0,0-60,60v120a59.84,59.84,0,0,0,2.49,17,124.45,124.45,0,0,0,15.51,1c82.84,0,150-81.93,150-183,0-1,0-2-.06-3a59.63,59.63,0,0,0-35.94-12Zm0,0"/><path class="cls-6" d="M618,629.34l-30.52-30.52,43.95-44a59.19,59.19,0,0,0-6-11L579,590.34l-30.52-30.52L589,519.28a60.22,60.22,0,0,0-13-1.46h-2.48L540,551.34l-33.52-33.52H504a60.22,60.22,0,0,0-13,1.46l40.55,40.54L501,590.34l-46.46-46.46a59.19,59.19,0,0,0-6,11l43.95,44L444,647.34v17l18-18,30.52,30.52-43.95,43.95a59.19,59.19,0,0,0,6,11L501,685.3l30.52,30.52L491,756.36a60.22,60.22,0,0,0,13,1.46h2.48L540,724.3l33.52,33.52H576a60.22,60.22,0,0,0,13-1.46l-40.55-40.54L579,685.3l46.46,46.46a59.19,59.19,0,0,0,6-11l-43.95-43.95L636,628.3v-17Zm-78-61,30.52,30.52L540,629.34l-30.52-30.52Zm-69.52,69.52L501,607.3l30.52,30.52L501,668.34ZM540,707.34l-30.52-30.52L540,646.3l30.52,30.52Zm39-39-30.52-30.52L579,607.3l30.52,30.52Zm0,0"/></g></svg>