<svg xmlns="http://www.w3.org/2000/svg" viewBox="0 0 1080 1080"><defs><style>.cls-1{fill:#fbaf17;}.cls-2{fill:#603913;}.cls-3{fill:#dc2b5a;}.cls-4{fill:#f0542c;}.cls-5{fill:#a1a9d5;}</style></defs><title>Rectangle cake</title><g id="Layer_2" data-name="Layer 2"><circle class="cls-1" cx="540" cy="531.06" r="207.03"/></g><g id="Layer_4" data-name="Layer 4"><path class="cls-2" d="M381.61,707.08V595c5.72-.44,10.25,1.77,14.64,4.85,6.4,4.51,12.52,9.87,19.6,12.87,16,6.79,31.76,4.94,46.27-5,3.51-2.38,6.72-5.19,10.08-7.78,9.14-7,20.46-6.92,29.83-.11,6.32,4.6,12.51,9.87,19.6,12.86,16.17,6.83,32,4.88,46.58-5.2,3.38-2.34,6.5-5.06,9.76-7.58,9.11-7,20.55-6.85,29.83-.06,6.41,4.69,12.74,10,19.94,13,15.78,6.57,31.32,4.7,45.62-5,3.62-2.44,6.94-5.32,10.38-8a21.47,21.47,0,0,1,14.5-5V707.08Z"/><path class="cls-3" d="M523.33,523.75V474h33.21v49.73h4.83q46.68,0,93.36,0c19.89,0,35.5,10.75,41.58,28.38a41.53,41.53,0,0,1,2.06,17.43c-2.85.27-5.46.41-8,.79a45.65,45.65,0,0,0-21.07,9.14c-2.89,2.19-5.69,4.49-8.55,6.71-9.26,7.14-20.84,7.1-30.1-.12-3-2.3-5.82-4.74-8.85-6.94a48.57,48.57,0,0,0-58,.17c-2.92,2.14-5.69,4.48-8.55,6.7-9.45,7.37-21,7.41-30.37,0-7.55-6-14.88-12.28-24.58-14.58-15-3.55-29-1.72-41.7,7.51-2.82,2-5.51,4.29-8.28,6.44-10.72,8.32-21.63,8.32-32.12-.13-7.42-6-14.85-11.94-24.45-14-3.87-.84-7.84-1.22-12.09-1.87-.9-11.73,2.32-22.16,10.06-31.05,8.84-10.16,20.25-14.58,33.59-14.56q46.68.06,93.35,0Z"/><path class="cls-4" d="M540,448.61a29.08,29.08,0,0,1-28.86-33.76C514,398.34,522,385,536.09,375.59c2.68-1.79,5-1.94,7.76-.06,15,10.17,23.61,24.36,25.18,42.23C570.51,434.62,556.84,448.6,540,448.61Z"/><path class="cls-5" d="M348,732.81c1.49-.08,3-.23,4.47-.23H732v25H348Z"/></g></svg>