<svg xmlns="http://www.w3.org/2000/svg" xmlns:xlink="http://www.w3.org/1999/xlink" viewBox="0 0 1080 1080"><defs><style>.cls-1{fill:none;}.cls-2{fill:#fbaf17;}.cls-3{clip-path:url(#clip-path);}.cls-4{fill:#35adc1;}.cls-5{fill:#1585a0;}.cls-6{fill:#fdf8f2;}.cls-7{fill:#f0648c;}.cls-8{fill:#fff;}.cls-9{fill:#eae0d4;}.cls-10{fill:#ea316a;opacity:0.6;}</style><clipPath id="clip-path"><rect class="cls-1" x="334.68" y="327.45" width="410.64" height="410.64"/></clipPath></defs><title>Vanilla</title><g id="Layer_4" data-name="Layer 4"><path class="cls-2" d="M745.32,532.77A205.14,205.14,0,0,1,653,704.26h0A208.35,208.35,0,0,1,632.7,716a205.78,205.78,0,0,1-185.39,0c-2.71-1.38-5.39-2.8-8-4.29l0,0a205.33,205.33,0,0,1-104.59-179c0-113.4,91.92-205.32,205.32-205.32s205.32,91.92,205.32,205.32Zm0,0"/><g class="cls-3"><path class="cls-4" d="M737,355.47,604.26,419.35l-3.58,1.72-12.79-26.56,136.29-65.6A14.74,14.74,0,1,1,737,355.47Zm0,0"/><path class="cls-5" d="M737,355.47,604.26,419.35l-6.18-12.83,136.3-65.6a14.68,14.68,0,0,1,10.8-.78A14.72,14.72,0,0,1,737,355.47Zm0,0"/></g><path class="cls-4" d="M603.64,386.93c24.37,50.63,17.91,104.29-14.43,119.86s-78.31-12.86-102.67-63.5"/><path class="cls-5" d="M589.21,506.79c-32.34,15.57-78.31-12.86-102.68-63.49l31.18-15c24.37,50.63,56.38,85.78,71.5,78.5Zm0,0"/><path class="cls-5" d="M603.64,386.93c1.73,3.59.49,8.32-3.1,13.61-7.3,10.76-24.32,23.82-46,34.25s-42.5,15.58-55.45,14.57c-6.38-.49-10.85-2.48-12.58-6.06-5.23-10.87,16.75-32.3,49.08-47.86s62.8-19.38,68-8.51Zm0,0"/><path class="cls-6" d="M600.54,400.54c-7.3,10.76-24.32,23.82-46,34.25s-42.5,15.58-55.45,14.57c7.29-10.75,24.31-23.82,46-34.25s42.5-15.58,55.46-14.57Zm0,0"/><path class="cls-7" d="M621.79,757.56h-245c-12.4-64.67-8.06-134.38,9.41-208H612.38C629.67,621,633.77,690.53,621.79,757.56Z"/><path class="cls-8" d="M370.81,711a470.15,470.15,0,0,1,1.51-80.32l253.8-1.56a484,484,0,0,1,1.45,81.44Z"/><rect class="cls-9" x="372.36" y="521" width="252.01" height="28.95" rx="14.48"/><path class="cls-10" d="M437.6,593.59H621.38q-3.63-21.9-9-44.08H386.24c-17.47,73.67-21.81,143.38-9.41,208h53.35C420.41,706.59,423.83,651.65,437.6,593.59Z"/></g></svg>