<svg xmlns="http://www.w3.org/2000/svg" xmlns:xlink="http://www.w3.org/1999/xlink" viewBox="0 0 1080 1080"><defs><style>.cls-1{fill:none;}.cls-2{fill:#fbaf17;}.cls-3{fill:#609547;}.cls-4{fill:#67a34f;}.cls-5{fill:#7eb456;}.cls-6{fill:#89c25e;}.cls-7{clip-path:url(#clip-path);}.cls-8{fill:#96583b;}.cls-9{fill:#904e2e;}.cls-10{fill:#7b3c1d;}.cls-11{fill:#a36649;}.cls-12{fill:#fcb432;}.cls-13{fill:#fba91c;}.cls-14{fill:#f79a1d;}.cls-15{fill:#f4941f;}</style><clipPath id="clip-path"><rect class="cls-1" x="366.66" y="415.18" width="347.76" height="342.61"/></clipPath></defs><title>Walnut </title><g id="Layer_2" data-name="Layer 2"><circle class="cls-2" cx="540" cy="531.06" r="207.03"/></g><g id="Layer_4" data-name="Layer 4"><path class="cls-3" d="M584.88,598.86c-91,60.45-191.19,21.89-218.22-83.93,91-60.43,191.19-21.89,218.22,83.93Zm0,0"/><path class="cls-4" d="M581.25,591.15l-70.35-27-24.23-54.52-10.77,4.78,19.45,43.76L476.74,551l-20-45.05L446,510.69,461.2,545l-18.6-7.15L428.88,507l-10.77,4.78,8.94,20.1-27.71-10.65-4.24,11,27.71,10.65-20.1,8.94,4.79,10.76,30.86-13.72L457,556l-34.29,15.23L427.47,582l45-20,18.6,7.15-43.75,19.44,4.79,10.77,54.5-24.23,70.36,27Zm0,0"/><path class="cls-5" d="M572.36,629.18c-107.07-21.59-150.67-119.7-95-213.65,107.07,21.59,150.67,119.71,95,213.65Zm0,0"/><path class="cls-6" d="M544.63,552.29,566,496.61l-11-4.23-17.19,44.68-8.09-18.21,17.7-46-11-4.23-13.47,35-8.09-18.2L527,453.89l-11-4.23-7.9,20.53-12.06-27.13-10.76,4.78L497.38,475l-20.54-7.89-4.23,11,31.54,12.13,8.09,18.21-35-13.47-4.23,11,46,17.7,8.09,18.21-44.68-17.19-4.24,11,55.68,21.41L564.48,626l10.76-4.78Zm0,0"/><g class="cls-7"><path class="cls-8" d="M618.44,419.65l-4.12-4.12-4.12,4.09a105.69,105.69,0,0,1-32.61,21.58c-37.08,16.33-63.37,56.6-63.37,103.88C514.22,606.86,559,657,614.32,657s100.1-50.1,100.1-111.88c0-47.28-26.29-87.55-63.4-103.88a105.76,105.76,0,0,1-32.58-21.55Zm0,0"/><path class="cls-9" d="M689.55,471.53C657.18,558.37,586,598.07,536.71,615.69A96.29,96.29,0,0,0,614.32,657c55.29,0,100.1-50.1,100.1-111.88a118.71,118.71,0,0,0-24.87-73.55Zm0,0"/></g><path class="cls-9" d="M531.89,562.74a124.91,124.91,0,0,0-16.18,1.08c8,52.85,49.06,93.14,98.61,93.14a90.51,90.51,0,0,0,28.82-4.76c-5.95-50.28-53.47-89.46-111.25-89.46Zm0,0"/><rect class="cls-10" x="608.43" y="444.97" width="11.78" height="82.44"/><rect class="cls-10" x="608.43" y="539.19" width="11.78" height="23.55"/><rect class="cls-10" x="608.43" y="574.52" width="11.78" height="58.88"/><path class="cls-10" d="M585.09,455.19a345.14,345.14,0,0,0,0,179.77l11.36-3.12a333.13,333.13,0,0,1,0-173.53Zm0,0"/><path class="cls-10" d="M537.54,545l11.77.25c.59-27.75,8.84-50.81,16.73-61.36l-9.43-7.07c-11,14.72-18.51,41.48-19.07,68.18Zm0,0"/><path class="cls-10" d="M632.2,458.31a333.13,333.13,0,0,1,0,173.53L643.56,635a345.35,345.35,0,0,0,0-179.77Zm0,0"/><path class="cls-10" d="M687.13,514.24,675.69,517a122.25,122.25,0,0,1-13.51,90l10.27,5.74a133.79,133.79,0,0,0,14.68-98.48Zm0,0"/><path class="cls-10" d="M683.51,501.94a150.34,150.34,0,0,0-11.06-24.51l-10.27,5.75a139.42,139.42,0,0,1,10.19,22.6Zm0,0"/><g class="cls-7"><path class="cls-11" d="M371.13,652.87,367,657l4.09,4.12a105.64,105.64,0,0,1,21.58,32.6c16.33,37.09,56.6,63.38,103.87,63.38,61.79,0,111.88-44.82,111.88-100.1S558.34,556.85,496.55,556.85c-47.27,0-87.54,26.29-103.87,63.4a105.94,105.94,0,0,1-21.55,32.62Zm0,0"/><path class="cls-8" d="M587.64,599c-39.52,71.21-129.74,96.91-188.43,106.91a114.08,114.08,0,0,0,97.34,51.19c61.79,0,111.88-44.82,111.88-100.1a92.68,92.68,0,0,0-20.79-58Zm0,0"/></g><path class="cls-12" d="M561.33,657a19.44,19.44,0,0,0,17.75-27.28c-12.7-28.78-44.9-49.27-82.53-49.27-36.25,0-69.32,19.82-82.31,49.32l-.12.32-.12.26A19.3,19.3,0,0,0,432,657Zm0,0"/><path class="cls-13" d="M563,657a19.43,19.43,0,0,1,17.73,27.28C568.07,713,535.88,733.5,498.25,733.5c-36.25,0-69.33-19.82-82.31-49.32l-.14-.31-.11-.26a19.27,19.27,0,0,1,18-26.65Zm0,0"/><path class="cls-14" d="M558.47,634.24l-14.72-8.83a34.4,34.4,0,0,0-19.68-4.79c-.12,0-.21-.08-.32-.08l-7.06-.4a13.13,13.13,0,0,1-11.62-7.29,11.25,11.25,0,0,1,.79-11.92c3.82-5.26,8.74-7.51,22.51-3.47a5.89,5.89,0,0,0,3.33-11.29c-11.47-3.38-24.33-5.17-33.84,5.93a19.82,19.82,0,0,0-6.21-6.35,28.22,28.22,0,0,0-22.75-1.56,5.89,5.89,0,0,0,4,11.09,16.64,16.64,0,0,1,12.57.48,13,13,0,0,1,4.9,10.25,11.67,11.67,0,0,1-1.14,7.61c-3.12,4.79-10.6,5.54-17.81,6.28-2.06.21-4.06.41-5.89.7a34.37,34.37,0,0,0-16.12,4.81l-14.72,8.83a5.89,5.89,0,1,0,6.06,10.1l14.73-8.83a22.69,22.69,0,0,1,23.37,0,34.45,34.45,0,0,0,35.51,0,22.69,22.69,0,0,1,23.37,0l14.73,8.83a5.89,5.89,0,1,0,6.06-10.1Zm-68.3-6.52a21.6,21.6,0,0,0,7.06-5.41,25.18,25.18,0,0,0,5.72,5.38,22.56,22.56,0,0,1-12.77,0Zm0,0"/><path class="cls-15" d="M562.19,671.59a5.88,5.88,0,0,0-8.09-2l-14.72,8.83a22.71,22.71,0,0,1-23.38,0,34.43,34.43,0,0,0-35.5,0,22.71,22.71,0,0,1-23.38,0l-14.72-8.83a5.89,5.89,0,1,0-6.06,10.1l14.71,8.83a34.4,34.4,0,0,0,16.15,4.81c1.85.29,3.84.49,5.89.7,7.22.74,14.72,1.49,17.8,6.28A11.67,11.67,0,0,1,492,707.9a13,13,0,0,1-4.89,10.25,16.66,16.66,0,0,1-12.54.49,5.89,5.89,0,0,0-4,11.08A32.64,32.64,0,0,0,481,731.48a23.13,23.13,0,0,0,12.34-3.28,20,20,0,0,0,6.22-6.38,23.55,23.55,0,0,0,18.81,8.54,54,54,0,0,0,15-2.59,5.89,5.89,0,1,0-3.33-11.3c-13.77,4-18.69,1.77-22.52-3.47a11.25,11.25,0,0,1-.78-11.91,13.28,13.28,0,0,1,11.93-7.3l6.74-.39c.11,0,.2-.07.31-.08a34.36,34.36,0,0,0,19.69-4.79l14.72-8.84a5.87,5.87,0,0,0,2-8.1Zm-70.31,14.6a22.77,22.77,0,0,1,12.83,0,24.82,24.82,0,0,0-5.74,5.37,21.84,21.84,0,0,0-7.09-5.37Zm0,0"/><path class="cls-14" d="M563,662.84H425.89a5.89,5.89,0,0,1,0-11.77H563a5.89,5.89,0,1,1,0,11.77Zm0,0"/></g></svg>